<svg xmlns="http://www.w3.org/2000/svg" xmlns:xlink="http://www.w3.org/1999/xlink" data-name="Layer 2" viewBox="0 0 1000 1000"><defs><linearGradient id="a" x1="190.74" x2="334.74" y1="768.6" y2="603.16" gradientUnits="userSpaceOnUse"><stop offset="0" stop-color="#ccd2d6" stop-opacity=".5"/><stop offset="1" stop-color="#ccd2d6" stop-opacity=".8"/></linearGradient><linearGradient id="b" x1="490.9" x2="539.92" y1="500.21" y2="752.98" gradientUnits="userSpaceOnUse"><stop offset="0" stop-color="#ccd2d6" stop-opacity=".3"/><stop offset="1" stop-color="#ccd2d6" stop-opacity=".7"/></linearGradient><linearGradient id="d" x1="492.89" x2="492.89" y1="375.04" y2="554.81" xlink:href="#a"/><linearGradient id="e" x1="621.37" x2="621.37" y1="375.04" y2="554.81" xlink:href="#a"/><linearGradient id="f" x1="364.41" x2="364.41" y1="375.04" y2="554.81" xlink:href="#a"/><linearGradient id="g" x1="790.04" x2="710.38" y1="256.2" y2="427.78" gradientUnits="userSpaceOnUse"><stop offset="0" stop-color="#ccd2d6" stop-opacity=".25"/><stop offset="1" stop-color="#ccd2d6" stop-opacity=".5"/></linearGradient><linearGradient id="h" x1="765.9" x2="765.9" y1="256.57" y2="401.65" gradientUnits="userSpaceOnUse"><stop offset="0" stop-color="#ccd2d6" stop-opacity=".7"/><stop offset="1" stop-color="#ccd2d6"/></linearGradient><linearGradient id="i" x1="547.12" x2="784.05" y1="152.08" y2="1011.99" xlink:href="#b"/><linearGradient id="j" x1="433.65" x2="670.58" y1="183.34" y2="1043.26" xlink:href="#b"/><linearGradient id="k" x1="624.67" x2="861.61" y1="130.71" y2="990.63" xlink:href="#b"/><linearGradient id="l" x1="342.5" x2="579.43" y1="208.46" y2="1068.37" xlink:href="#b"/><linearGradient id="m" x1="99.61" x2="336.55" y1="275.38" y2="1135.3" xlink:href="#b"/><linearGradient id="n" x1="788.83" x2="1025.76" y1="85.48" y2="945.39" xlink:href="#b"/><linearGradient id="c" x1="500" x2="500" y1="241.26" y2="979.64" gradientUnits="userSpaceOnUse"><stop offset="0" stop-color="#ccd2d6" stop-opacity=".1"/><stop offset="1" stop-color="#ccd2d6" stop-opacity=".25"/></linearGradient><linearGradient id="o" x1="50.27" x2="50.27" y1="241.26" y2="979.64" xlink:href="#c"/><linearGradient id="p" x1="925.02" x2="925.02" y1="241.26" y2="979.64" xlink:href="#c"/><linearGradient id="q" x1="500" x2="500" xlink:href="#c"/><linearGradient id="r" x1="884.56" x2="884.56" y1="601.26" y2="723.81" xlink:href="#c"/></defs><path fill="url(#a)" d="m608.1,714.06v18.66c0,24.03-19.48,43.51-43.51,43.51H251.26l-58.5,51.73c-11.67,10.32-29.77,1.82-29.77-13.97v-37.76h-26.48c-24.03,0-43.51-19.48-43.51-43.51v-295.44c0-23.78,19.07-43.1,42.74-43.5v195.73c0,58.1,47.09,105.2,105.19,105.2h345l22.17,19.34Z"/><path fill="url(#b)" d="m850.03,421.15v168.36c0,58.1-47.1,105.2-105.2,105.2h-47.45v58.99c0,14.93-17.57,22.92-28.82,13.11l-60.47-52.76-22.17-19.34H240.93c-58.1,0-105.19-47.1-105.19-105.2v-224.55c0-58.1,47.09-105.19,105.19-105.19h392.68c-16.83,46.12-9.03,99.72,25.07,139.76,48.43,56.88,132.34,65.68,191.36,21.63Z"/><circle cx="492.89" cy="483.33" r="32.12" fill="url(#d)"/><circle cx="621.37" cy="483.33" r="32.12" fill="url(#e)"/><circle cx="364.41" cy="483.33" r="32.12" fill="url(#f)"/><path fill="url(#g)" d="m857.23,415.42c-2.35,2.01-4.76,3.92-7.2,5.74-59.02,44.05-142.93,35.25-191.36-21.63-34.09-40.04-41.9-93.64-25.07-139.76,8.06-22.09,21.78-42.46,40.96-58.8,59.23-50.44,148.12-43.33,198.57,15.89,50.42,59.23,43.33,148.11-15.9,198.56Z"/><path fill="url(#h)" d="m820.19,351.27l-11.22,11.21c-3.74,3.74-9.8,3.74-13.53,0l-29.54-29.54-29.55,29.54c-3.72,3.74-9.79,3.74-13.53,0l-11.22-11.21c-3.75-3.75-3.75-9.81,0-13.54l29.54-29.53-29.54-29.55c-3.74-3.73-3.75-9.79,0-13.53l11.22-11.22c3.74-3.74,9.8-3.74,13.53,0l29.55,29.55,29.54-29.55c3.73-3.74,9.79-3.74,13.53,0l11.22,11.22c3.75,3.75,3.74,9.8,0,13.53l-29.54,29.55,29.54,29.53c3.75,3.73,3.75,9.79,0,13.54Z"/><g opacity=".6"><path fill="#ccd2d6" d="m396.53,320.62h-163.4c-1.66,0-3-1.34-3-3s1.34-3,3-3h163.4c1.66,0,3,1.34,3,3s-1.34,3-3,3Z"/><path fill="#ccd2d6" d="m492.89,320.62h-64.09c-1.66,0-3-1.34-3-3s1.34-3,3-3h64.09c1.66,0,3,1.34,3,3s-1.34,3-3,3Z"/><path fill="#ccd2d6" d="m724.65,645.95H233.13c-1.66,0-3-1.34-3-3s1.34-3,3-3h491.52c1.66,0,3,1.34,3,3s-1.34,3-3,3Z"/></g><g><circle cx="555.84" cy="183.74" r="16.4" fill="url(#i)"/><circle cx="442.04" cy="213.82" r="9.72" fill="url(#j)"/><circle cx="798.83" cy="762.76" r="32.92" fill="url(#k)"/><circle cx="512.44" cy="825.25" r="12.56" fill="url(#l)"/><circle cx="107.31" cy="303.31" r="14.31" fill="url(#m)"/><circle cx="894.82" cy="470.17" r="18.96" fill="url(#n)"/></g><g><path fill="url(#c)" d="m87.21,238.38h14.57c24.08,0,45.88,9.76,61.66,25.54,5.22,5.22,9.78,11.11,13.55,17.51,17.72-13.59,39.88-21.66,63.94-21.66h329.05c15.31-13.32,35.32-21.39,57.21-21.39h16.35c7.88-13.81,18.23-26.51,31.04-37.42,59.23-50.43,148.12-43.32,198.57,15.9,5.8,6.81,10.83,14.03,15.12,21.52h24.53c48.16,0,87.21-39.04,87.21-87.19,0-24.08-9.76-45.88-25.54-61.66-15.79-15.79-37.58-25.54-61.66-25.54H87.21C39.05,63.98,0,103.03,0,151.19c0,24.08,9.76,45.88,25.54,61.65,15.79,15.79,37.58,25.54,61.66,25.54Zm468.63-71.04c9.06,0,16.4,7.34,16.4,16.4s-7.34,16.39-16.4,16.39-16.4-7.34-16.4-16.39,7.34-16.4,16.4-16.4Zm-113.8,36.76c5.37,0,9.72,4.35,9.72,9.72s-4.35,9.72-9.72,9.72-9.72-4.35-9.72-9.72,4.36-9.72,9.72-9.72Z"/><path fill="url(#o)" d="m87.21,587.2h5.79v-149.92c0-9.08,2.79-17.51,7.54-24.48h-13.34c-48.16,0-87.21,39.04-87.21,87.19,0,24.08,9.76,45.89,25.54,61.66,15.79,15.79,37.58,25.54,61.66,25.54Z"/><path fill="url(#p)" d="m912.79,412.8h-52.57c-.98.88-1.97,1.76-2.99,2.62-2.35,2.01-4.75,3.92-7.2,5.73v166.05h62.76c48.16,0,87.21-39.04,87.21-87.21,0-24.08-9.76-45.88-25.54-61.65-15.79-15.79-37.58-25.54-61.66-25.54Zm-17.97,76.33c-10.47,0-18.95-8.49-18.95-18.96s8.48-18.96,18.95-18.96,18.96,8.49,18.96,18.96-8.49,18.96-18.96,18.96Z"/><path fill="url(#q)" d="m912.79,761.6h-81.07c.01.38.03.77.03,1.16,0,18.19-14.74,32.93-32.92,32.93s-32.93-14.74-32.93-32.93c0-7.87,2.76-15.09,7.37-20.75-2.29-1.87-4.5-3.85-6.59-5.95-11.19-11.19-19.35-25.42-23.15-41.35h-46.15v58.99c0,14.94-17.56,22.92-28.82,13.11l-60.46-52.76v18.67c0,24.03-19.48,43.51-43.51,43.51H251.26l-58.51,51.73c-11.67,10.32-29.76,1.82-29.76-13.97v-37.76h-26.48c-12.94,0-24.56-5.66-32.53-14.63h-16.77c-48.16,0-87.21,39.05-87.21,87.21,0,24.08,9.76,45.88,25.54,61.66,15.79,15.79,37.58,25.54,61.66,25.54h825.58c48.16,0,87.21-39.05,87.21-87.21,0-24.08-9.76-45.88-25.54-61.66-15.79-15.79-37.58-25.54-61.66-25.54Zm-400.35,76.21c-6.94,0-12.56-5.62-12.56-12.56s5.62-12.57,12.56-12.57,12.57,5.63,12.57,12.57-5.63,12.56-12.57,12.56Z"/></g><circle cx="884.56" cy="683.71" r="46.13" fill="url(#r)"/></svg>