<svg xmlns="http://www.w3.org/2000/svg" xmlns:xlink="http://www.w3.org/1999/xlink" data-name="Layer 2" viewBox="0 0 1000 1000"><defs><linearGradient id="a" x1="32.07" x2="32.07" y1="262.7" y2="795.81" gradientUnits="userSpaceOnUse"><stop class="stopColorccd2d6 svgShape" offset="0" stop-color="#ccd1d6" stop-opacity=".1"/><stop class="stopColorccd2d6 svgShape" offset="1" stop-color="#ccd1d6" stop-opacity=".25"/></linearGradient><linearGradient id="d" x1="500" x2="500" y1="262.7" y2="795.81" xlink:href="#a"/><linearGradient id="e" x1="936.95" x2="936.95" y1="262.7" y2="795.81" xlink:href="#a"/><linearGradient id="f" x1="500" x2="500" y1="262.7" y2="795.81" xlink:href="#a"/><linearGradient id="g" x1="151.97" x2="151.97" y1="262.7" y2="795.81" xlink:href="#a"/><linearGradient id="h" x1="858.62" x2="707.45" y1="580.44" y2="580.44" gradientUnits="userSpaceOnUse"><stop class="stopColorccd2d6 svgShape" offset="0" stop-color="#ccd1d6" stop-opacity=".5"/><stop class="stopColorccd2d6 svgShape" offset=".89" stop-color="#ccd1d6"/></linearGradient><linearGradient id="b" x1="858.62" x2="707.45" y1="462.25" y2="462.25" gradientUnits="userSpaceOnUse"><stop class="stopColorccd2d6 svgShape" offset="0" stop-color="#ccd1d6" stop-opacity=".5"/><stop class="stopColorccd2d6 svgShape" offset="1" stop-color="#ccd1d6"/></linearGradient><linearGradient id="i" x1="858.62" x2="707.45" y1="667.47" y2="667.47" xlink:href="#b"/><linearGradient id="c" x1="10.92" x2="320.37" y1="567.11" y2="646.77" gradientUnits="userSpaceOnUse"><stop class="stopColorccd2d6 svgShape" offset="0" stop-color="#ccd1d6" stop-opacity=".25"/><stop class="stopColorccd2d6 svgShape" offset="1" stop-color="#ccd1d6" stop-opacity=".5"/></linearGradient><linearGradient id="j" x1="753.31" x2="335.1" y1="578.62" y2="586.28" xlink:href="#c"/><linearGradient id="k" x1="362.52" x2="362.52" y1="530.79" y2="280.62" gradientUnits="userSpaceOnUse"><stop class="stopColorccd2d6 svgShape" offset="0" stop-color="#ccd1d6" stop-opacity=".25"/><stop class="stopColorccd2d6 svgShape" offset=".92" stop-color="#ccd1d6" stop-opacity=".5"/></linearGradient><linearGradient id="l" x1="362.51" x2="362.51" y1="630.36" y2="846.5" xlink:href="#b"/><linearGradient id="m" x1="242.79" x2="242.79" y1="106.45" y2="278.02" xlink:href="#c"/><linearGradient id="n" x1="242.79" x2="242.79" y1="161.6" y2="214.39" xlink:href="#b"/><linearGradient id="o" x1="536.3" x2="501.07" y1="143.96" y2="261.92" xlink:href="#b"/><linearGradient id="p" x1="612.87" x2="577.64" y1="166.83" y2="284.79" xlink:href="#b"/><linearGradient id="q" x1="397.94" x2="362.71" y1="102.63" y2="220.59" xlink:href="#b"/><linearGradient id="r" x1="327.39" x2="292.16" y1="81.56" y2="199.51" xlink:href="#b"/></defs><path fill="url(#a)" d="m64.14,418.63v162.73C26.27,567.14,0,536.06,0,500.01c0-24.76,12.39-47.17,32.41-63.39,9.13-7.4,19.86-13.52,31.74-17.98Z"/><path fill="url(#d)" d="m889.4,768.89h-235.92c-30.43,0-58-9.96-77.98-26.09H195.99c-19.98,16.12-47.55,26.09-77.98,26.09h-7.41c-30.53,0-58.18,10.03-78.19,26.25-20.02,16.22-32.41,38.63-32.41,63.38,0,49.5,49.53,89.63,110.6,89.63h778.81c30.53,0,58.18-10.02,78.19-26.25,20.02-16.22,32.41-38.61,32.41-63.38,0-49.5-49.53-89.63-110.6-89.63Zm-745.08,40.73l-69.76,40.37c-1.15.67-2.41.99-3.66.99-2.52,0-4.97-1.3-6.33-3.65-2.02-3.5-.83-7.97,2.66-10l69.76-40.38c3.5-2.02,7.97-.83,10,2.67,2.02,3.5.83,7.97-2.67,10Zm39.34,20.12l-18.09,91.93c-.68,3.49-3.74,5.9-7.17,5.9-.46,0-.94-.04-1.41-.13-3.96-.78-6.55-4.62-5.77-8.58l18.09-91.94c.78-3.96,4.62-6.55,8.58-5.75,3.97.78,6.55,4.62,5.77,8.58Z"/><path fill="url(#e)" d="m1000,500.01c0,24.75-12.39,47.16-32.41,63.38-20.01,16.23-47.66,26.25-78.19,26.25h-15.5v-179.26h15.5c61.07,0,110.6,40.12,110.6,89.64Z"/><path fill="url(#f)" d="m1000,141.48c0,24.75-12.39,47.16-32.41,63.38-20.01,16.22-47.66,26.25-78.19,26.25h-28.68c-30.54,0-58.18,10.05-78.2,26.26-20.01,16.22-32.39,38.63-32.39,63.38,0,14.41,4.21,28.03,11.67,40.1h-403.94c7.47-12.06,11.68-25.68,11.68-40.1,0-19.69-7.83-37.89-21.12-52.68h7.89c12.34,0,22.32-10,22.32-22.32V115.79c0-12.34-9.99-22.34-22.32-22.34h-227.03c-12.33,0-22.32,10-22.32,22.34v115.27C47.56,229.5,0,189.99,0,141.48c0-24.75,12.39-47.16,32.41-63.38,20.01-16.23,47.66-26.25,78.19-26.25h778.81c61.07,0,110.6,40.12,110.6,89.63Z"/><path fill="url(#g)" d="m212.05,316.37c0,17.78-8.13,33.73-20.97,44.47h-.01s-78.2.01-78.2.01h-.01c-12.83-10.75-20.97-26.7-20.97-44.48,0-21.18,11.54-39.74,28.8-50.03,2.65,1.11,5.55,1.72,8.58,1.72h56.69c15.75,10.56,26.09,28.26,26.09,48.31Z"/><g class="color000000 svgShape"><path fill="#93c5fd" d="m897.07,788.36h-8.22c-1.66,0-3-1.34-3-3s1.34-3,3-3h8.22c4.9,0,9.64-1.01,14.09-3.01,1.51-.68,3.29,0,3.97,1.5.68,1.51,0,3.29-1.5,3.97-5.22,2.35-10.79,3.54-16.55,3.54Zm-32.22,0h-24c-1.66,0-3-1.34-3-3s1.34-3,3-3h24c1.66,0,3,1.34,3,3s-1.34,3-3,3Zm-48,0h-24c-1.66,0-3-1.34-3-3s1.34-3,3-3h24c1.66,0,3,1.34,3,3s-1.34,3-3,3Zm-48,0h-24c-1.66,0-3-1.34-3-3s1.34-3,3-3h24c1.66,0,3,1.34,3,3s-1.34,3-3,3Zm-48,0h-24c-1.66,0-3-1.34-3-3s1.34-3,3-3h24c1.66,0,3,1.34,3,3s-1.34,3-3,3Zm-48,0h-24c-1.66,0-3-1.34-3-3s1.34-3,3-3h24c1.66,0,3,1.34,3,3s-1.34,3-3,3Zm-48,0h-24c-1.66,0-3-1.34-3-3s1.34-3,3-3h24c1.66,0,3,1.34,3,3s-1.34,3-3,3Zm-48,0h-24c-1.66,0-3-1.34-3-3s1.34-3,3-3h24c1.66,0,3,1.34,3,3s-1.34,3-3,3Zm-48,0h-24c-1.66,0-3-1.34-3-3s1.34-3,3-3h24c1.66,0,3,1.34,3,3s-1.34,3-3,3Zm-48,0h-24c-1.66,0-3-1.34-3-3s1.34-3,3-3h24c1.66,0,3,1.34,3,3s-1.34,3-3,3Zm-48,0h-24c-1.66,0-3-1.34-3-3s1.34-3,3-3h24c1.66,0,3,1.34,3,3s-1.34,3-3,3Zm-48,0h-24c-1.66,0-3-1.34-3-3s1.34-3,3-3h24c1.66,0,3,1.34,3,3s-1.34,3-3,3Zm-48,0h-24c-1.66,0-3-1.34-3-3s1.34-3,3-3h24c1.66,0,3,1.34,3,3s-1.34,3-3,3Zm-48,0h-18.22c-2.09,0-4.18-.16-6.22-.48-1.64-.25-2.76-1.79-2.5-3.43.25-1.64,1.79-2.75,3.43-2.5,1.74.27,3.52.41,5.3.41h18.22c1.66,0,3,1.34,3,3s-1.34,3-3,3Zm641.09-19.09c-.52,0-1.05-.13-1.53-.42-1.43-.84-1.9-2.68-1.05-4.11,3.43-5.79,5.24-12.47,5.24-19.31v-2.15c0-1.66,1.34-3,3-3s3,1.34,3,3v2.15c0,7.91-2.1,15.65-6.08,22.36-.56.95-1.56,1.47-2.58,1.47Zm5.66-46.98c-1.66,0-3-1.34-3-3v-24c0-1.66,1.34-3,3-3s3,1.34,3,3v24c0,1.66-1.34,3-3,3Zm0-48c-1.66,0-3-1.34-3-3v-24c0-1.66,1.34-3,3-3s3,1.34,3,3v24c0,1.66-1.34,3-3,3Zm0-48c-1.66,0-3-1.34-3-3v-24c0-1.66,1.34-3,3-3s3,1.34,3,3v24c0,1.66-1.34,3-3,3Zm0-48c-1.66,0-3-1.34-3-3v-24c0-1.66,1.34-3,3-3s3,1.34,3,3v24c0,1.66-1.34,3-3,3Zm0-48c-1.66,0-3-1.34-3-3v-24c0-1.66,1.34-3,3-3s3,1.34,3,3v24c0,1.66-1.34,3-3,3Zm0-48c-1.66,0-3-1.34-3-3v-24c0-1.66,1.34-3,3-3s3,1.34,3,3v24c0,1.66-1.34,3-3,3Zm0-48c-1.66,0-3-1.34-3-3v-24c0-1.66,1.34-3,3-3s3,1.34,3,3v24c0,1.66-1.34,3-3,3Zm0-48c-1.66,0-3-1.34-3-3v-24c0-1.66,1.34-3,3-3s3,1.34,3,3v24c0,1.66-1.34,3-3,3Zm-6.48-46.74c-.98,0-1.95-.48-2.52-1.37-4.11-6.37-9.91-11.18-16.76-13.93-1.54-.62-2.29-2.36-1.67-3.9.62-1.54,2.36-2.28,3.9-1.67,8.01,3.21,14.78,8.83,19.57,16.25.9,1.39.5,3.25-.89,4.15-.5.33-1.07.48-1.62.48Zm-686.33-5.44c-.73,0-1.46-.26-2.04-.8-1.22-1.12-1.29-3.02-.17-4.24,6.01-6.5,13.67-10.83,22.17-12.51,1.62-.32,3.2.73,3.53,2.36s-.73,3.2-2.36,3.53c-7.24,1.44-13.79,5.14-18.93,10.7-.59.64-1.4.96-2.2.96Zm644.51-12.32h-24c-1.66,0-3-1.34-3-3s1.34-3,3-3h24c1.66,0,3,1.34,3,3s-1.34,3-3,3Zm-48,0h-24c-1.66,0-3-1.34-3-3s1.34-3,3-3h24c1.66,0,3,1.34,3,3s-1.34,3-3,3Zm-48,0h-24c-1.66,0-3-1.34-3-3s1.34-3,3-3h24c1.66,0,3,1.34,3,3s-1.34,3-3,3Zm-48,0h-24c-1.66,0-3-1.34-3-3s1.34-3,3-3h24c1.66,0,3,1.34,3,3s-1.34,3-3,3Zm-48,0h-24c-1.66,0-3-1.34-3-3s1.34-3,3-3h24c1.66,0,3,1.34,3,3s-1.34,3-3,3Zm-48,0h-24c-1.66,0-3-1.34-3-3s1.34-3,3-3h24c1.66,0,3,1.34,3,3s-1.34,3-3,3Zm-48,0h-24c-1.66,0-3-1.34-3-3s1.34-3,3-3h24c1.66,0,3,1.34,3,3s-1.34,3-3,3Zm-48,0h-24c-1.66,0-3-1.34-3-3s1.34-3,3-3h24c1.66,0,3,1.34,3,3s-1.34,3-3,3Zm-48,0h-24c-1.66,0-3-1.34-3-3s1.34-3,3-3h24c1.66,0,3,1.34,3,3s-1.34,3-3,3Zm-48,0h-24c-1.66,0-3-1.34-3-3s1.34-3,3-3h24c1.66,0,3,1.34,3,3s-1.34,3-3,3Zm-48,0h-24c-1.66,0-3-1.34-3-3s1.34-3,3-3h24c1.66,0,3,1.34,3,3s-1.34,3-3,3Zm-48,0h-24c-1.66,0-3-1.34-3-3s1.34-3,3-3h24c1.66,0,3,1.34,3,3s-1.34,3-3,3Zm-48,0h-24c-1.66,0-3-1.34-3-3s1.34-3,3-3h24c1.66,0,3,1.34,3,3s-1.34,3-3,3Z" class="colorccd2d6 svgShape" opacity=".5"/><path fill="url(#h)" d="m873.9,423.81v286.31c0,11.19-5.63,21.08-14.22,26.96l-55.72-40.62-82.64-60.25-60.44-44.06v-28.48l58.58-38.36,84.49-55.32,65.86-43.12c1.43-.94,2.79-1.96,4.07-3.05Z" opacity=".25"/><path fill="url(#b)" d="m873.9,393.54v30.27c-1.28,1.09-2.65,2.11-4.07,3.05l-65.86,43.12-84.49,55.32-58.58,38.36v-170.12c0-16.72-12.57-30.52-28.77-32.44-1.28-.17-2.58-.24-3.91-.24h213.01c1.33,0,2.63.07,3.91.24,16.2,1.93,28.77,15.73,28.77,32.44Z" opacity=".25"/><path fill="url(#i)" d="m859.69,737.08c-5.25,3.62-11.62,5.73-18.47,5.73h-213.01c6.85,0,13.22-2.11,18.47-5.73,8.58-5.88,14.22-15.76,14.22-26.96v-117.98l60.44,44.06,82.64,60.25,55.72,40.62Z" opacity=".25"/><path fill="#93c5fd" d="m864.32,736.24c-.77,0-1.54-.29-2.12-.88-1.17-1.17-1.17-3.07,0-4.24,5.21-5.2,8.29-12.11,8.67-19.46.08-1.65,1.49-2.94,3.15-2.84,1.65.08,2.93,1.49,2.84,3.15-.45,8.83-4.15,17.14-10.42,23.4-.59.58-1.35.88-2.12.88Zm-19.16-6.75c-.61,0-1.23-.19-1.77-.58l-19.39-14.14c-1.34-.98-1.63-2.85-.66-4.19.98-1.34,2.85-1.63,4.19-.66l19.39,14.14c1.34.98,1.63,2.85.66,4.19-.59.81-1.5,1.23-2.43,1.23Zm-38.79-28.28c-.61,0-1.23-.19-1.77-.58l-19.39-14.14c-1.34-.98-1.63-2.85-.66-4.19.98-1.34,2.85-1.63,4.19-.66l19.39,14.14c1.34.98,1.63,2.85.66,4.19-.59.81-1.5,1.23-2.43,1.23Zm67.53-10.4c-1.66,0-3-1.34-3-3v-24c0-1.66,1.34-3,3-3s3,1.34,3,3v24c0,1.66-1.34,3-3,3Zm-106.31-17.88c-.61,0-1.23-.19-1.77-.58l-19.39-14.14c-1.34-.98-1.63-2.85-.66-4.19.98-1.34,2.85-1.63,4.19-.66l19.39,14.14c1.34.98,1.63,2.85.66,4.19-.59.81-1.5,1.23-2.43,1.23Zm-38.79-28.28c-.61,0-1.23-.19-1.77-.58l-19.39-14.14c-1.34-.98-1.63-2.85-.66-4.19.98-1.34,2.85-1.63,4.19-.66l19.39,14.14c1.34.98,1.63,2.85.66,4.19-.59.81-1.5,1.23-2.43,1.23Zm145.1-1.84c-1.66,0-3-1.34-3-3v-24c0-1.66,1.34-3,3-3s3,1.34,3,3v24c0,1.66-1.34,3-3,3Zm-183.89-26.44c-.61,0-1.23-.19-1.77-.58l-19.39-14.14c-1.34-.98-1.63-2.85-.66-4.19.98-1.34,2.85-1.63,4.19-.66l19.39,14.14c1.34.98,1.63,2.85.66,4.19-.59.81-1.5,1.23-2.43,1.23Zm183.89-21.56c-1.66,0-3-1.34-3-3v-24c0-1.66,1.34-3,3-3s3,1.34,3,3v24c0,1.66-1.34,3-3,3Zm-213.01-11.62c-1.66,0-3-1.34-3-3v-18.15l7.61-4.98c1.39-.91,3.25-.52,4.15.87.91,1.39.52,3.25-.87,4.15l-4.89,3.2v14.91c0,1.66-1.34,3-3,3Zm26.33-33.77c-.98,0-1.94-.48-2.51-1.36-.91-1.39-.52-3.25.87-4.15l20.08-13.15c1.39-.91,3.25-.52,4.15.87.91,1.39.52,3.25-.87,4.15l-20.08,13.15c-.51.33-1.08.49-1.64.49Zm186.68-2.61c-1.66,0-3-1.34-3-3v-24c0-1.66,1.34-3,3-3s3,1.34,3,3v24c0,1.66-1.34,3-3,3Zm-146.52-23.69c-.98,0-1.94-.48-2.51-1.36-.91-1.39-.52-3.25.87-4.15l20.08-13.15c1.38-.91,3.25-.52,4.15.87.91,1.39.52,3.25-.87,4.15l-20.08,13.15c-.51.33-1.08.49-1.64.49Zm146.52-24.31c-1.66,0-3-1.34-3-3v-24c0-1.66,1.34-3,3-3s3,1.34,3,3v24c0,1.66-1.34,3-3,3Zm-106.36-1.98c-.98,0-1.94-.48-2.51-1.36-.91-1.39-.52-3.25.87-4.15l20.08-13.15c1.39-.91,3.25-.52,4.15.87.91,1.39.52,3.25-.87,4.15l-20.08,13.15c-.51.33-1.08.49-1.64.49Zm40.16-26.29c-.98,0-1.94-.48-2.51-1.36-.91-1.39-.52-3.25.87-4.15l20.08-13.15c1.39-.91,3.25-.52,4.15.87.91,1.39.52,3.25-.87,4.15l-20.08,13.15c-.51.33-1.08.49-1.64.49Zm66.2-19.73c-1.66,0-3-1.34-3-3v-19.28c-.12.82-.58,1.59-1.33,2.08l-20.08,13.15c-1.39.91-3.25.52-4.15-.87-.91-1.39-.52-3.25.87-4.15l20.08-13.15c1.39-.91,3.25-.52,4.15.87.25.38.4.79.46,1.21v-3.86c0-1.66,1.34-3,3-3s3,1.34,3,3v24c0,1.66-1.34,3-3,3Z" class="colorccd2d6 svgShape" opacity=".5"/><path fill="#93c5fd" d="m660.89,566.65c-1.66,0-3-1.34-3-3v-24c0-1.66,1.34-3,3-3s3,1.34,3,3v24c0,1.66-1.34,3-3,3Zm0-48c-1.66,0-3-1.34-3-3v-24c0-1.66,1.34-3,3-3s3,1.34,3,3v24c0,1.66-1.34,3-3,3Zm0-48c-1.66,0-3-1.34-3-3v-24c0-1.66,1.34-3,3-3s3,1.34,3,3v24c0,1.66-1.34,3-3,3Zm0-48c-1.66,0-3-1.34-3-3v-24c0-1.66,1.34-3,3-3s3,1.34,3,3v24c0,1.66-1.34,3-3,3Zm213.01-7.96c-1.66,0-3-1.34-3-3v-18.16c0-1.77-.16-3.55-.47-5.28-.29-1.63.79-3.19,2.42-3.48,1.63-.3,3.19.79,3.48,2.42.37,2.08.56,4.21.56,6.34v18.16c0,1.66-1.34,3-3,3Zm-220.06-38.44c-.88,0-1.76-.39-2.35-1.14-4.59-5.79-11.1-9.64-18.33-10.85-1.63-.27-2.74-1.82-2.46-3.45.27-1.63,1.82-2.73,3.45-2.46,3.37.56,6.62,1.61,9.64,3.08-.04-.19-.06-.38-.06-.58,0-1.66,1.34-3,3-3h24c1.66,0,3,1.34,3,3s-1.34,3-3,3h-22.72c3.07,2.05,5.83,4.59,8.18,7.55,1.03,1.3.81,3.19-.49,4.21-.55.44-1.21.65-1.86.65Zm207.36-5.58c-.64,0-1.29-.2-1.83-.63-4.24-3.28-9.29-5.35-14.6-5.98-1.14-.15-2.29-.22-3.56-.22h-2.48c-1.66,0-3-1.34-3-3s1.34-3,3-3h2.48c1.54,0,2.94.09,4.31.27,6.34.75,12.42,3.24,17.52,7.19,1.31,1.01,1.55,2.9.54,4.21-.59.76-1.48,1.16-2.37,1.16Zm-46.47-6.83h-24c-1.66,0-3-1.34-3-3s1.34-3,3-3h24c1.66,0,3,1.34,3,3s-1.34,3-3,3Zm-48,0h-24c-1.66,0-3-1.34-3-3s1.34-3,3-3h24c1.66,0,3,1.34,3,3s-1.34,3-3,3Zm-48,0h-24c-1.66,0-3-1.34-3-3s1.34-3,3-3h24c1.66,0,3,1.34,3,3s-1.34,3-3,3Z" class="colorccd2d6 svgShape" opacity=".5"/><path fill="#93c5fd" d="m841.21,745.81h-4.36c-1.66,0-3-1.34-3-3s1.34-3,3-3h4.36c6.03,0,11.83-1.8,16.77-5.2,1.36-.94,3.23-.6,4.17.77.94,1.36.6,3.23-.77,4.17-5.94,4.09-12.92,6.26-20.17,6.26Zm-28.36,0h-24c-1.66,0-3-1.34-3-3s1.34-3,3-3h24c1.66,0,3,1.34,3,3s-1.34,3-3,3Zm-48,0h-24c-1.66,0-3-1.34-3-3s1.34-3,3-3h24c1.66,0,3,1.34,3,3s-1.34,3-3,3Zm-48,0h-24c-1.66,0-3-1.34-3-3s1.34-3,3-3h24c1.66,0,3,1.34,3,3s-1.34,3-3,3Zm-48,0h-24c-1.56,0-2.84-1.19-2.99-2.71-1.84.76-3.75,1.37-5.71,1.82-1.61.36-3.22-.64-3.59-2.26-.37-1.62.64-3.22,2.26-3.59,3.65-.83,7.06-2.33,10.15-4.46,2.95-2.02,5.48-4.52,7.54-7.44.95-1.35,2.82-1.68,4.18-.73,1.35.95,1.68,2.82.73,4.18-2.47,3.51-5.51,6.52-9.05,8.94-.12.09-.25.17-.38.25h20.86c1.66,0,3,1.34,3,3s-1.34,3-3,3Zm-7.96-36.69c-1.66,0-3-1.34-3-3v-24c0-1.66,1.34-3,3-3s3,1.34,3,3v24c0,1.66-1.34,3-3,3Zm0-48c-1.66,0-3-1.34-3-3v-24c0-1.66,1.34-3,3-3s3,1.34,3,3v24c0,1.66-1.34,3-3,3Zm0-48c-1.66,0-3-1.34-3-3v-17.99c0-1.66,1.34-3,3-3s3,1.34,3,3v17.99c0,1.66-1.34,3-3,3Z" class="colorccd2d6 svgShape" opacity=".5"/><g class="color000000 svgShape"><path fill="url(#c)" d="m64.14,428.2l232.96,149.38-218.74,159.5c-8.58-5.88-14.22-15.75-14.22-26.96v-281.92Z"/><path fill="url(#j)" d="m660.89,423.81v286.31c0,11.19-5.63,21.08-14.22,26.96l-55.72-40.62-82.64-60.25-39.3-28.65h-.01l-41.71-30.42,40.62-26.6h.01l38.53-25.23,84.49-55.32,65.86-43.12c1.43-.94,2.79-1.96,4.07-3.05Z"/><path fill="url(#k)" d="m660.89,393.54v30.27c-1.28,1.08-2.65,2.11-4.07,3.05l-65.86,43.12-84.5,55.32-38.52,25.22h-.02l-40.62,26.61-43.11,28.22c-.47.31-.93.59-1.39.87-.38.23-.76.45-1.15.66-.43.24-.87.46-1.29.69-.33.16-.66.32-.99.48-.33.15-.66.3-1,.45-.66.29-1.34.57-2.01.83-.9.34-1.82.64-2.74.91-.93.28-1.86.51-2.78.72-.54.11-1.09.22-1.63.32-.4.06-.8.12-1.19.18-.48.07-.95.13-1.43.18-.35.04-.7.08-1.07.1-.35.04-.72.06-1.07.07-.71.04-1.43.06-2.15.06-.47,0-.94-.01-1.41-.02-.22-.01-.45-.02-.67-.04-.37-.01-.74-.03-1.1-.07-.2,0-.4-.02-.6-.05-.33-.02-.67-.06-1-.11-.18,0-.38-.03-.56-.06-.39-.06-.78-.11-1.17-.18-.12-.01-.26-.04-.38-.06-.03,0-.08-.01-.12-.03-.6-.11-1.21-.23-1.8-.36-.59-.14-1.17-.28-1.76-.44-.1-.01-.18-.04-.28-.07-.55-.16-1.1-.32-1.65-.5-.03-.02-.07-.03-.09-.04-.59-.2-1.17-.4-1.75-.62-.07-.03-.16-.06-.23-.1-.46-.17-.93-.37-1.38-.57-.78-.33-1.56-.7-2.31-1.1-.09-.04-.17-.09-.26-.14-.41-.2-.82-.42-1.22-.64-.07-.05-.14-.09-.22-.14-.55-.31-1.1-.64-1.63-.98l-43.61-27.97-19.94-12.78-213.02-136.6v-34.66c0-18.05,14.63-32.69,32.69-32.69h531.37c1.33,0,2.64.07,3.92.24,16.2,1.93,28.77,15.73,28.77,32.45Z"/><path fill="url(#l)" d="m646.67,737.08c-5.25,3.62-11.62,5.73-18.47,5.73H96.83c-6.85,0-13.22-2.11-18.47-5.73l198.81-144.97,19.93-14.53,43.61,27.97c.54.34,1.09.67,1.63.99.07.05.15.09.22.13.4.22.8.44,1.22.65.09.05.17.1.26.13.76.4,1.54.77,2.32,1.1.45.21.91.4,1.38.57.07.04.16.07.23.1.57.22,1.16.43,1.74.62.02.01.06.02.1.04.55.18,1.1.34,1.65.5.1.04.18.06.28.07.59.17,1.17.32,1.76.44.6.15,1.21.27,1.8.37.04.01.09.02.12.02.12.02.26.05.38.06.39.07.78.12,1.17.18.18.02.38.05.56.06.33.05.67.09,1,.11.2.02.4.05.6.05.37.04.73.06,1.1.07,1.41.07,2.82.07,4.23,0,.35-.01.72-.04,1.07-.07.37-.02.72-.06,1.07-.1.48-.05.95-.11,1.43-.18.39-.06.79-.12,1.19-.18.54-.1,1.09-.21,1.62-.32.93-.21,1.87-.45,2.78-.72.93-.27,1.84-.57,2.74-.91.67-.26,1.35-.54,2.01-.83.34-.15.67-.29,1-.45.33-.16.66-.32.99-.48.43-.23.87-.45,1.29-.69.39-.21.77-.43,1.15-.66.46-.28.93-.56,1.39-.87l43.11-28.23,41.71,30.42h.01l39.3,28.65,82.64,60.25,55.72,40.62Z"/></g><g class="color000000 svgShape"><path fill="url(#m)" d="m378.64,115.79v129.95c0,12.33-10,22.32-22.34,22.32h-36.16v21.06c0,9.68-11.44,14.83-18.69,8.4l-4.34-3.86-26.21-23.26-2.62-2.33h-138.99c-12.34,0-22.34-10-22.34-22.32V115.79c0-12.34,10-22.34,22.34-22.34h227.02c12.34,0,22.34,10,22.34,22.34Z"/><path fill="url(#n)" d="m204.6,168.02c0-14.75,3.34-26.16,10.01-34.24,6.67-8.08,16.08-12.12,28.22-12.12s21.54,4.01,28.18,12.04c6.65,8.03,9.97,19.44,9.97,34.24v20.02c0,14.7-3.34,26.09-10.01,34.17-6.67,8.08-16.1,12.12-28.3,12.12-12.09,0-21.46-4.01-28.11-12.04-6.65-8.03-9.97-19.44-9.97-34.24v-19.94Zm25.36,23.78c.05,7.88,1.1,13.66,3.16,17.35,2.06,3.69,5.24,5.53,9.56,5.53,4.47,0,7.73-1.89,9.78-5.68,2.06-3.79,3.08-9.77,3.08-17.95v-28c-.15-7.33-1.22-12.79-3.2-16.41-1.98-3.61-5.15-5.42-9.52-5.42s-7.73,1.95-9.78,5.83c-2.06,3.89-3.09,9.77-3.09,17.65v27.09Z"/></g><g class="color000000 svgShape"><path fill="url(#o)" d="m526.4,262.23c-3.39,0-6.44-2.37-7.15-5.83l-19.09-91.73c-.82-3.96,1.72-7.83,5.67-8.65,3.95-.82,7.83,1.72,8.65,5.67l19.09,91.73c.82,3.96-1.72,7.83-5.67,8.65-.5.1-1,.15-1.5.15Z" opacity=".5"/><path fill="url(#p)" d="m569.15,271.36c-1.54,0-3.08-.48-4.4-1.48-3.22-2.43-3.87-7.02-1.43-10.25l48.56-64.33c2.43-3.23,7.02-3.87,10.25-1.43,3.22,2.43,3.87,7.02,1.43,10.25l-48.56,64.33c-1.44,1.91-3.63,2.91-5.84,2.91Z" opacity=".5"/><g class="color000000 svgShape" opacity=".5"><path fill="url(#q)" d="m158.41,927.58c-.47,0-.94-.05-1.42-.14-3.96-.78-6.55-4.63-5.77-8.59l18.09-91.93c.78-3.96,4.62-6.55,8.59-5.77,3.96.78,6.55,4.63,5.77,8.59l-18.09,91.93c-.69,3.49-3.75,5.9-7.17,5.9Z"/><path fill="url(#r)" d="m70.9,850.99c-2.53,0-4.98-1.31-6.34-3.65-2.02-3.5-.83-7.97,2.67-10l69.76-40.38c3.5-2.02,7.97-.83,10,2.67,2.02,3.5.83,7.97-2.67,10l-69.76,40.38c-1.15.67-2.41.98-3.66.98Z"/></g></g></g></svg>