<svg xmlns="http://www.w3.org/2000/svg" data-name="Layer 2" viewBox="0 0 1000 1000"><g class="color000000 svgShape" opacity=".25"><path fill="#93c5fd" d="m64.14,418.63v162.73C26.27,567.14,0,536.06,0,500.01c0-24.76,12.39-47.17,32.41-63.39,9.13-7.4,19.86-13.52,31.74-17.98Z" class="colorccd2d6 svgShape"/><path fill="#93c5fd" d="m889.4,768.89h-235.92c-30.43,0-58-9.96-77.98-26.09H195.99c-19.98,16.12-47.55,26.09-77.98,26.09h-7.41c-30.53,0-58.18,10.03-78.19,26.25-20.02,16.22-32.41,38.63-32.41,63.38,0,49.5,49.53,89.63,110.6,89.63h778.81c30.53,0,58.18-10.02,78.19-26.25,20.02-16.22,32.41-38.61,32.41-63.38,0-49.5-49.53-89.63-110.6-89.63Zm-745.08,40.73l-69.76,40.37c-1.15.67-2.41.99-3.66.99-2.52,0-4.97-1.3-6.33-3.65-2.02-3.5-.83-7.97,2.66-10l69.76-40.38c3.5-2.02,7.97-.83,10,2.67,2.02,3.5.83,7.97-2.67,10Zm39.34,20.12l-18.09,91.93c-.68,3.49-3.74,5.9-7.17,5.9-.46,0-.94-.04-1.41-.13-3.96-.78-6.55-4.62-5.77-8.58l18.09-91.94c.78-3.96,4.62-6.55,8.58-5.75,3.97.78,6.55,4.62,5.77,8.58Z" class="colorccd2d6 svgShape"/><path fill="#93c5fd" d="m1000,500.01c0,24.75-12.39,47.16-32.41,63.38-20.01,16.23-47.66,26.25-78.19,26.25h-15.5v-179.26h15.5c61.07,0,110.6,40.12,110.6,89.64Z" class="colorccd2d6 svgShape"/><path fill="#93c5fd" d="m1000,141.48c0,24.75-12.39,47.16-32.41,63.38-20.01,16.22-47.66,26.25-78.19,26.25h-28.68c-30.54,0-58.18,10.05-78.2,26.26-20.01,16.22-32.39,38.63-32.39,63.38,0,14.41,4.21,28.03,11.67,40.1h-403.94c7.47-12.06,11.68-25.68,11.68-40.1,0-19.69-7.83-37.89-21.12-52.68h7.89c12.34,0,22.32-10,22.32-22.32V115.79c0-12.34-9.99-22.34-22.32-22.34h-227.03c-12.33,0-22.32,10-22.32,22.34v115.27C47.56,229.5,0,189.99,0,141.48c0-24.75,12.39-47.16,32.41-63.38,20.01-16.23,47.66-26.25,78.19-26.25h778.81c61.07,0,110.6,40.12,110.6,89.63Z" class="colorccd2d6 svgShape"/><path fill="#93c5fd" d="m212.05,316.37c0,17.79-8.13,33.74-20.97,44.48-10.51,8.8-24.18,14.12-39.11,14.12s-28.59-5.32-39.1-14.12c-12.84-10.74-20.97-26.69-20.97-44.48,0-21.18,11.53-39.73,28.8-50.03,2.65,1.11,5.55,1.72,8.58,1.72h56.68c15.75,10.56,26.09,28.26,26.09,48.31Z" class="colorccd2d6 svgShape"/></g><path fill="#93c5fd" d="m897.07,788.36h-8.22c-1.66,0-3-1.34-3-3s1.34-3,3-3h8.22c4.9,0,9.64-1.01,14.09-3.01,1.51-.68,3.29,0,3.97,1.5.68,1.51,0,3.29-1.5,3.97-5.22,2.35-10.79,3.54-16.55,3.54Zm-32.22,0h-24c-1.66,0-3-1.34-3-3s1.34-3,3-3h24c1.66,0,3,1.34,3,3s-1.34,3-3,3Zm-48,0h-24c-1.66,0-3-1.34-3-3s1.34-3,3-3h24c1.66,0,3,1.34,3,3s-1.34,3-3,3Zm-48,0h-24c-1.66,0-3-1.34-3-3s1.34-3,3-3h24c1.66,0,3,1.34,3,3s-1.34,3-3,3Zm-48,0h-24c-1.66,0-3-1.34-3-3s1.34-3,3-3h24c1.66,0,3,1.34,3,3s-1.34,3-3,3Zm-48,0h-24c-1.66,0-3-1.34-3-3s1.34-3,3-3h24c1.66,0,3,1.34,3,3s-1.34,3-3,3Zm-48,0h-24c-1.66,0-3-1.34-3-3s1.34-3,3-3h24c1.66,0,3,1.34,3,3s-1.34,3-3,3Zm-48,0h-24c-1.66,0-3-1.34-3-3s1.34-3,3-3h24c1.66,0,3,1.34,3,3s-1.34,3-3,3Zm-48,0h-24c-1.66,0-3-1.34-3-3s1.34-3,3-3h24c1.66,0,3,1.34,3,3s-1.34,3-3,3Zm-48,0h-24c-1.66,0-3-1.34-3-3s1.34-3,3-3h24c1.66,0,3,1.34,3,3s-1.34,3-3,3Zm-48,0h-24c-1.66,0-3-1.34-3-3s1.34-3,3-3h24c1.66,0,3,1.34,3,3s-1.34,3-3,3Zm-48,0h-24c-1.66,0-3-1.34-3-3s1.34-3,3-3h24c1.66,0,3,1.34,3,3s-1.34,3-3,3Zm-48,0h-24c-1.66,0-3-1.34-3-3s1.34-3,3-3h24c1.66,0,3,1.34,3,3s-1.34,3-3,3Zm-48,0h-18.22c-2.09,0-4.18-.16-6.22-.48-1.64-.25-2.76-1.79-2.5-3.43.25-1.64,1.79-2.75,3.43-2.5,1.74.27,3.52.41,5.3.41h18.22c1.66,0,3,1.34,3,3s-1.34,3-3,3Zm641.09-19.09c-.52,0-1.05-.13-1.53-.42-1.43-.84-1.9-2.68-1.05-4.11,3.43-5.79,5.24-12.47,5.24-19.31v-2.15c0-1.66,1.34-3,3-3s3,1.34,3,3v2.15c0,7.91-2.1,15.65-6.08,22.36-.56.95-1.56,1.47-2.58,1.47Zm5.66-46.98c-1.66,0-3-1.34-3-3v-24c0-1.66,1.34-3,3-3s3,1.34,3,3v24c0,1.66-1.34,3-3,3Zm0-48c-1.66,0-3-1.34-3-3v-24c0-1.66,1.34-3,3-3s3,1.34,3,3v24c0,1.66-1.34,3-3,3Zm0-48c-1.66,0-3-1.34-3-3v-24c0-1.66,1.34-3,3-3s3,1.34,3,3v24c0,1.66-1.34,3-3,3Zm0-48c-1.66,0-3-1.34-3-3v-24c0-1.66,1.34-3,3-3s3,1.34,3,3v24c0,1.66-1.34,3-3,3Zm0-48c-1.66,0-3-1.34-3-3v-24c0-1.66,1.34-3,3-3s3,1.34,3,3v24c0,1.66-1.34,3-3,3Zm0-48c-1.66,0-3-1.34-3-3v-24c0-1.66,1.34-3,3-3s3,1.34,3,3v24c0,1.66-1.34,3-3,3Zm0-48c-1.66,0-3-1.34-3-3v-24c0-1.66,1.34-3,3-3s3,1.34,3,3v24c0,1.66-1.34,3-3,3Zm0-48c-1.66,0-3-1.34-3-3v-24c0-1.66,1.34-3,3-3s3,1.34,3,3v24c0,1.66-1.34,3-3,3Zm-6.48-46.74c-.98,0-1.95-.48-2.52-1.37-4.11-6.37-9.91-11.18-16.76-13.93-1.54-.62-2.29-2.36-1.67-3.9.62-1.54,2.36-2.28,3.9-1.67,8.01,3.21,14.78,8.83,19.57,16.25.9,1.39.5,3.25-.89,4.15-.5.33-1.07.48-1.62.48Zm-686.33-5.44c-.73,0-1.46-.26-2.04-.8-1.22-1.12-1.29-3.02-.17-4.24,6.01-6.5,13.67-10.83,22.17-12.51,1.62-.32,3.2.73,3.53,2.36s-.73,3.2-2.36,3.53c-7.24,1.44-13.79,5.14-18.93,10.7-.59.64-1.4.96-2.2.96Zm644.51-12.32h-24c-1.66,0-3-1.34-3-3s1.34-3,3-3h24c1.66,0,3,1.34,3,3s-1.34,3-3,3Zm-48,0h-24c-1.66,0-3-1.34-3-3s1.34-3,3-3h24c1.66,0,3,1.34,3,3s-1.34,3-3,3Zm-48,0h-24c-1.66,0-3-1.34-3-3s1.34-3,3-3h24c1.66,0,3,1.34,3,3s-1.34,3-3,3Zm-48,0h-24c-1.66,0-3-1.34-3-3s1.34-3,3-3h24c1.66,0,3,1.34,3,3s-1.34,3-3,3Zm-48,0h-24c-1.66,0-3-1.34-3-3s1.34-3,3-3h24c1.66,0,3,1.34,3,3s-1.34,3-3,3Zm-48,0h-24c-1.66,0-3-1.34-3-3s1.34-3,3-3h24c1.66,0,3,1.34,3,3s-1.34,3-3,3Zm-48,0h-24c-1.66,0-3-1.34-3-3s1.34-3,3-3h24c1.66,0,3,1.34,3,3s-1.34,3-3,3Zm-48,0h-24c-1.66,0-3-1.34-3-3s1.34-3,3-3h24c1.66,0,3,1.34,3,3s-1.34,3-3,3Zm-48,0h-24c-1.66,0-3-1.34-3-3s1.34-3,3-3h24c1.66,0,3,1.34,3,3s-1.34,3-3,3Zm-48,0h-24c-1.66,0-3-1.34-3-3s1.34-3,3-3h24c1.66,0,3,1.34,3,3s-1.34,3-3,3Zm-48,0h-24c-1.66,0-3-1.34-3-3s1.34-3,3-3h24c1.66,0,3,1.34,3,3s-1.34,3-3,3Zm-48,0h-24c-1.66,0-3-1.34-3-3s1.34-3,3-3h24c1.66,0,3,1.34,3,3s-1.34,3-3,3Zm-48,0h-24c-1.66,0-3-1.34-3-3s1.34-3,3-3h24c1.66,0,3,1.34,3,3s-1.34,3-3,3Z" class="colorccd2d6 svgShape"/><path fill="#93c5fd" d="m873.9,423.81v286.31c0,11.19-5.63,21.08-14.22,26.96l-55.72-40.62-82.64-60.25-60.44-44.06v-28.48l58.58-38.36,84.49-55.32,65.86-43.12c1.43-.94,2.79-1.96,4.07-3.05Z" class="colorccd2d6 svgShape" opacity=".25"/><path fill="#93c5fd" d="m873.9,393.54v30.27c-1.28,1.09-2.65,2.11-4.07,3.05l-65.86,43.12-84.49,55.32-58.58,38.36v-170.12c0-16.72-12.57-30.52-28.77-32.44-1.28-.17-2.58-.24-3.91-.24h213.01c1.33,0,2.63.07,3.91.24,16.2,1.93,28.77,15.73,28.77,32.44Z" class="colorccd2d6 svgShape" opacity=".25"/><path fill="#93c5fd" d="m859.69,737.08c-5.25,3.62-11.62,5.73-18.47,5.73h-213.01c6.85,0,13.22-2.11,18.47-5.73,8.58-5.88,14.22-15.76,14.22-26.96v-117.98l60.44,44.06,82.64,60.25,55.72,40.62Z" class="colorccd2d6 svgShape" opacity=".25"/><path fill="#93c5fd" d="m864.32,736.24c-.77,0-1.54-.29-2.12-.88-1.17-1.17-1.17-3.07,0-4.24,5.21-5.2,8.29-12.11,8.67-19.46.08-1.65,1.49-2.94,3.15-2.84,1.65.08,2.93,1.49,2.84,3.15-.45,8.83-4.15,17.14-10.42,23.4-.59.58-1.35.88-2.12.88Zm-19.16-6.75c-.61,0-1.23-.19-1.77-.58l-19.39-14.14c-1.34-.98-1.63-2.85-.66-4.19.98-1.34,2.85-1.63,4.19-.66l19.39,14.14c1.34.98,1.63,2.85.66,4.19-.59.81-1.5,1.23-2.43,1.23Zm-38.79-28.28c-.61,0-1.23-.19-1.77-.58l-19.39-14.14c-1.34-.98-1.63-2.85-.66-4.19.98-1.34,2.85-1.63,4.19-.66l19.39,14.14c1.34.98,1.63,2.85.66,4.19-.59.81-1.5,1.23-2.43,1.23Zm67.53-10.4c-1.66,0-3-1.34-3-3v-24c0-1.66,1.34-3,3-3s3,1.34,3,3v24c0,1.66-1.34,3-3,3Zm-106.31-17.88c-.61,0-1.23-.19-1.77-.58l-19.39-14.14c-1.34-.98-1.63-2.85-.66-4.19.98-1.34,2.85-1.63,4.19-.66l19.39,14.14c1.34.98,1.63,2.85.66,4.19-.59.81-1.5,1.23-2.43,1.23Zm-38.79-28.28c-.61,0-1.23-.19-1.77-.58l-19.39-14.14c-1.34-.98-1.63-2.85-.66-4.19.98-1.34,2.85-1.63,4.19-.66l19.39,14.14c1.34.98,1.63,2.85.66,4.19-.59.81-1.5,1.23-2.43,1.23Zm145.1-1.84c-1.66,0-3-1.34-3-3v-24c0-1.66,1.34-3,3-3s3,1.34,3,3v24c0,1.66-1.34,3-3,3Zm-183.89-26.44c-.61,0-1.23-.19-1.77-.58l-19.39-14.14c-1.34-.98-1.63-2.85-.66-4.19.98-1.34,2.85-1.63,4.19-.66l19.39,14.14c1.34.98,1.63,2.85.66,4.19-.59.81-1.5,1.23-2.43,1.23Zm183.89-21.56c-1.66,0-3-1.34-3-3v-24c0-1.66,1.34-3,3-3s3,1.34,3,3v24c0,1.66-1.34,3-3,3Zm-213.01-11.62c-1.66,0-3-1.34-3-3v-18.15l7.61-4.98c1.39-.91,3.25-.52,4.15.87.91,1.39.52,3.25-.87,4.15l-4.89,3.2v14.91c0,1.66-1.34,3-3,3Zm26.33-33.77c-.98,0-1.94-.48-2.51-1.36-.91-1.39-.52-3.25.87-4.15l20.08-13.15c1.39-.91,3.25-.52,4.15.87.91,1.39.52,3.25-.87,4.15l-20.08,13.15c-.51.33-1.08.49-1.64.49Zm186.68-2.61c-1.66,0-3-1.34-3-3v-24c0-1.66,1.34-3,3-3s3,1.34,3,3v24c0,1.66-1.34,3-3,3Zm-146.52-23.69c-.98,0-1.94-.48-2.51-1.36-.91-1.39-.52-3.25.87-4.15l20.08-13.15c1.38-.91,3.25-.52,4.15.87.91,1.39.52,3.25-.87,4.15l-20.08,13.15c-.51.33-1.08.49-1.64.49Zm146.52-24.31c-1.66,0-3-1.34-3-3v-24c0-1.66,1.34-3,3-3s3,1.34,3,3v24c0,1.66-1.34,3-3,3Zm-106.36-1.98c-.98,0-1.94-.48-2.51-1.36-.91-1.39-.52-3.25.87-4.15l20.08-13.15c1.39-.91,3.25-.52,4.15.87.91,1.39.52,3.25-.87,4.15l-20.08,13.15c-.51.33-1.08.49-1.64.49Zm40.16-26.29c-.98,0-1.94-.48-2.51-1.36-.91-1.39-.52-3.25.87-4.15l20.08-13.15c1.39-.91,3.25-.52,4.15.87.91,1.39.52,3.25-.87,4.15l-20.08,13.15c-.51.33-1.08.49-1.64.49Zm66.2-19.73c-1.66,0-3-1.34-3-3v-19.28c-.12.82-.58,1.59-1.33,2.08l-20.08,13.15c-1.39.91-3.25.52-4.15-.87-.91-1.39-.52-3.25.87-4.15l20.08-13.15c1.39-.91,3.25-.52,4.15.87.25.38.4.79.46,1.21v-3.86c0-1.66,1.34-3,3-3s3,1.34,3,3v24c0,1.66-1.34,3-3,3Z" class="colorccd2d6 svgShape"/><path fill="#93c5fd" d="m660.89,566.65c-1.66,0-3-1.34-3-3v-24c0-1.66,1.34-3,3-3s3,1.34,3,3v24c0,1.66-1.34,3-3,3Zm0-48c-1.66,0-3-1.34-3-3v-24c0-1.66,1.34-3,3-3s3,1.34,3,3v24c0,1.66-1.34,3-3,3Zm0-48c-1.66,0-3-1.34-3-3v-24c0-1.66,1.34-3,3-3s3,1.34,3,3v24c0,1.66-1.34,3-3,3Zm0-48c-1.66,0-3-1.34-3-3v-24c0-1.66,1.34-3,3-3s3,1.34,3,3v24c0,1.66-1.34,3-3,3Zm213.01-7.96c-1.66,0-3-1.34-3-3v-18.16c0-1.77-.16-3.55-.47-5.28-.29-1.63.79-3.19,2.42-3.48,1.63-.3,3.19.79,3.48,2.42.37,2.08.56,4.21.56,6.34v18.16c0,1.66-1.34,3-3,3Zm-220.06-38.44c-.88,0-1.76-.39-2.35-1.14-4.59-5.79-11.1-9.64-18.33-10.85-1.63-.27-2.74-1.82-2.46-3.45.27-1.63,1.82-2.73,3.45-2.46,3.37.56,6.62,1.61,9.64,3.08-.04-.19-.06-.38-.06-.58,0-1.66,1.34-3,3-3h24c1.66,0,3,1.34,3,3s-1.34,3-3,3h-22.72c3.07,2.05,5.83,4.59,8.18,7.55,1.03,1.3.81,3.19-.49,4.21-.55.44-1.21.65-1.86.65Zm207.36-5.58c-.64,0-1.29-.2-1.83-.63-4.24-3.28-9.29-5.35-14.6-5.98-1.14-.15-2.29-.22-3.56-.22h-2.48c-1.66,0-3-1.34-3-3s1.34-3,3-3h2.48c1.54,0,2.94.09,4.31.27,6.34.75,12.42,3.24,17.52,7.19,1.31,1.01,1.55,2.9.54,4.21-.59.76-1.48,1.16-2.37,1.16Zm-46.47-6.83h-24c-1.66,0-3-1.34-3-3s1.34-3,3-3h24c1.66,0,3,1.34,3,3s-1.34,3-3,3Zm-48,0h-24c-1.66,0-3-1.34-3-3s1.34-3,3-3h24c1.66,0,3,1.34,3,3s-1.34,3-3,3Zm-48,0h-24c-1.66,0-3-1.34-3-3s1.34-3,3-3h24c1.66,0,3,1.34,3,3s-1.34,3-3,3Z" class="colorccd2d6 svgShape"/><path fill="#93c5fd" d="m841.21,745.81h-4.36c-1.66,0-3-1.34-3-3s1.34-3,3-3h4.36c4.56,0,8.99-1.03,13.01-3l-15.71-11.45c-1.34-.98-1.63-2.85-.66-4.19.98-1.34,2.85-1.63,4.19-.66l19.33,14.09c.29.2.56.46.77.77.94,1.36.6,3.23-.77,4.17-5.94,4.09-12.92,6.26-20.17,6.26Zm-28.36,0h-24c-1.66,0-3-1.34-3-3s1.34-3,3-3h24c1.66,0,3,1.34,3,3s-1.34,3-3,3Zm-48,0h-24c-1.66,0-3-1.34-3-3s1.34-3,3-3h24c1.66,0,3,1.34,3,3s-1.34,3-3,3Zm-48,0h-24c-1.66,0-3-1.34-3-3s1.34-3,3-3h24c1.66,0,3,1.34,3,3s-1.34,3-3,3Zm-48,0h-24c-1.56,0-2.84-1.19-2.99-2.71-1.84.76-3.75,1.37-5.71,1.82-1.61.36-3.22-.64-3.59-2.26-.37-1.62.64-3.22,2.26-3.59,3.65-.83,7.06-2.33,10.15-4.46,2.95-2.02,5.48-4.52,7.54-7.44.95-1.35,2.82-1.68,4.18-.73,1.35.95,1.68,2.82.73,4.18-2.47,3.51-5.51,6.52-9.05,8.94-.12.09-.25.17-.38.25h20.86c1.66,0,3,1.34,3,3s-1.34,3-3,3Zm152.04-34.01c-.61,0-1.23-.19-1.77-.58l-19.39-14.14c-1.34-.98-1.63-2.85-.66-4.19s2.85-1.63,4.19-.66l19.39,14.14c1.34.98,1.63,2.85.66,4.19-.59.81-1.5,1.23-2.43,1.23Zm-160-2.67c-1.66,0-3-1.34-3-3v-24c0-1.66,1.34-3,3-3s3,1.34,3,3v24c0,1.66-1.34,3-3,3Zm121.21-25.61c-.61,0-1.23-.19-1.77-.58l-19.39-14.14c-1.34-.98-1.63-2.85-.66-4.19.98-1.34,2.85-1.63,4.19-.66l19.39,14.14c1.34.98,1.63,2.85.66,4.19-.59.81-1.5,1.23-2.43,1.23Zm-121.21-22.39c-1.66,0-3-1.34-3-3v-24c0-1.66,1.34-3,3-3s3,1.34,3,3v24c0,1.66-1.34,3-3,3Zm82.43-5.89c-.61,0-1.23-.19-1.77-.58l-19.39-14.14c-1.34-.98-1.63-2.85-.66-4.19.98-1.34,2.85-1.63,4.19-.66l19.39,14.14c1.34.98,1.63,2.85.66,4.19-.59.81-1.5,1.23-2.43,1.23Zm-38.79-28.28c-.61,0-1.23-.19-1.77-.58l-19.39-14.14c-1.34-.98-1.63-2.85-.66-4.19.98-1.34,2.85-1.63,4.19-.66l19.39,14.14c1.34.98,1.63,2.85.66,4.19-.59.81-1.5,1.23-2.43,1.23Zm-43.64-13.84c-1.66,0-3-1.34-3-3v-23.88l9.63,7.02c1.34.98,1.63,2.85.66,4.19s-2.85,1.63-4.19.66l-.09-.07v12.09c0,1.66-1.34,3-3,3Z" class="colorccd2d6 svgShape"/><g class="color000000 svgShape"><path fill="#93c5fd" d="m64.14,428.2l232.96,149.38-218.74,159.5c-8.58-5.88-14.22-15.75-14.22-26.96v-281.92Z" class="colorccd2d6 svgShape" opacity=".5"/><path fill="#93c5fd" d="m660.89,423.81v286.31c0,11.19-5.63,21.08-14.22,26.96l-55.72-40.62-82.64-60.25-39.3-28.65h-.01l-41.71-30.42,40.62-26.6h.01l38.53-25.23,84.49-55.32,65.86-43.12c1.43-.94,2.79-1.96,4.07-3.05Z" class="colorccd2d6 svgShape" opacity=".5"/><path fill="#93c5fd" d="m660.89,393.54v30.27c-1.28,1.09-2.65,2.11-4.07,3.05l-65.86,43.12-84.49,55.32-38.53,25.23h-.01l-40.62,26.6-43.11,28.23c-.46.3-.93.59-1.39.87-.38.23-.76.45-1.15.66-.43.24-.87.46-1.29.69-.33.16-.66.32-.99.48-.33.16-.66.3-1,.45-.66.29-1.34.57-2.01.83-.9.34-1.82.65-2.74.91-.93.28-1.85.51-2.78.72-.54.11-1.09.22-1.62.32-.4.06-.8.12-1.19.18-.48.07-.95.13-1.43.18-.35.04-.71.07-1.07.1-.35.04-.72.06-1.07.07-.71.04-1.43.06-2.15.06-.48,0-.94-.01-1.41-.02-.22-.01-.45-.02-.67-.04-.37-.01-.73-.04-1.1-.07-.2,0-.4-.02-.6-.05-.33-.02-.67-.06-1-.11-.18-.01-.38-.04-.56-.06-.39-.06-.78-.11-1.17-.18-.12-.01-.26-.04-.38-.06-.04,0-.09-.01-.12-.02-.6-.11-1.21-.23-1.8-.37-.59-.13-1.17-.28-1.76-.44-.1-.01-.18-.04-.28-.07-.55-.16-1.1-.32-1.65-.5-.04-.01-.07-.02-.1-.04-.59-.2-1.17-.4-1.74-.62-.07-.02-.16-.06-.23-.1-.46-.17-.93-.37-1.38-.57-.78-.33-1.56-.7-2.32-1.1-.09-.04-.17-.09-.26-.13-.41-.21-.82-.43-1.22-.65-.07-.05-.15-.09-.22-.13-.55-.32-1.1-.65-1.63-.99l-43.61-27.97-19.93-12.78-213.02-136.6v-34.66c0-18.04,14.63-32.69,32.69-32.69h531.38c1.33,0,2.63.07,3.91.24,16.2,1.93,28.77,15.73,28.77,32.44Z" class="colorccd2d6 svgShape" opacity=".25"/><path fill="#93c5fd" d="m646.67,737.08c-5.25,3.62-11.62,5.73-18.47,5.73H96.83c-6.85,0-13.22-2.11-18.47-5.73l198.81-144.97,19.93-14.53,43.61,27.97c.54.34,1.09.67,1.63.99.07.05.15.09.22.13.4.22.8.44,1.22.65.09.05.17.1.26.13.76.4,1.54.77,2.32,1.1.45.21.91.4,1.38.57.07.04.16.07.23.1.57.22,1.16.43,1.74.62.02.01.06.02.1.04.55.18,1.1.34,1.65.5.1.04.18.06.28.07.59.17,1.17.32,1.76.44.6.15,1.21.27,1.8.37.04.01.09.02.12.02.12.02.26.05.38.06.39.07.78.12,1.17.18.18.02.38.05.56.06.33.05.67.09,1,.11.2.02.4.05.6.05.37.04.73.06,1.1.07,1.41.07,2.82.07,4.23,0,.35-.01.72-.04,1.07-.07.37-.02.72-.06,1.07-.1.48-.05.95-.11,1.43-.18.39-.06.79-.12,1.19-.18.54-.1,1.09-.21,1.62-.32.93-.21,1.87-.45,2.78-.72.93-.27,1.84-.57,2.74-.91.67-.26,1.35-.54,2.01-.83.34-.15.67-.29,1-.45.33-.16.66-.32.99-.48.43-.23.87-.45,1.29-.69.39-.21.77-.43,1.15-.66.46-.28.93-.56,1.39-.87l43.11-28.23,41.71,30.42h.01l39.3,28.65,82.64,60.25,55.72,40.62Z" class="colorccd2d6 svgShape" opacity=".75"/><path fill="#93c5fd" d="m78.41,740.75l-1.75-1.2c-9.72-6.65-15.52-17.66-15.52-29.43v-287.41l241.27,154.71-224,163.33Zm-11.27-307.06v276.44c0,9.09,4.16,17.63,11.22,23.24l213.42-155.62-224.65-144.05Z" class="colorccd2d6 svgShape"/><path fill="#93c5fd" d="m646.62,740.75l-224.59-163.76,233.15-152.65c1.3-.86,2.58-1.81,3.78-2.83l4.94-4.19v292.79c0,11.78-5.8,22.78-15.52,29.43l-1.75,1.2Zm-176.62-136.2l.79.57,175.88,128.24c7.07-5.61,11.23-14.14,11.23-23.24v-280.38l-225.32,147.52,37.42,27.29Z" class="colorccd2d6 svgShape"/><path fill="#93c5fd" d="m362.3,614.88c-.46,0-.9-.01-1.36-.02l-.9-.04c-.32,0-.71-.03-1.1-.07-.24,0-.48-.03-.72-.06-.34-.03-.69-.06-1.03-.11-.21-.02-.43-.04-.63-.07l-.44-.07c-.26-.04-.52-.08-.78-.12-.12-.02-.25-.04-.37-.06-.12-.02-.23-.04-.35-.07-.59-.11-1.2-.23-1.79-.36-.59-.14-1.17-.28-1.74-.43-.19-.04-.37-.09-.56-.15-.56-.16-1.12-.33-1.68-.51-.06-.02-.12-.04-.18-.06-.59-.2-1.17-.4-1.74-.62-.12-.04-.24-.09-.36-.14-.47-.18-.97-.38-1.47-.62-.79-.33-1.62-.72-2.4-1.14-.11-.05-.22-.11-.33-.17-.42-.21-.83-.44-1.25-.66l-.23-.14s-.06-.03-.1-.06c-.57-.33-1.14-.67-1.7-1.03L61.14,429.84v-36.3c0-19.68,16.01-35.69,35.69-35.69h531.38c1.54,0,2.95.09,4.31.27,17.87,2.12,31.38,17.35,31.38,35.42v31.66l-1.06.9c-1.38,1.17-2.85,2.27-4.36,3.27l-272.64,178.5c-.48.32-.97.62-1.46.91-.43.27-.87.52-1.31.75-.21.12-.51.28-.8.43l-1.58.79c-.38.18-.75.34-1.13.51-.66.3-1.4.6-2.12.87-.98.37-1.98.7-2.98.99-.87.26-1.85.52-2.96.76-.61.13-1.18.24-1.74.34l-1.27.2c-.53.08-1.05.15-1.58.2-.41.04-.77.08-1.13.1-.4.04-.82.07-1.23.08-.7.04-1.47.06-2.25.06Zm-1.21-6.02c1.07.03,2.14.02,3.2-.04.34-.01.63-.03.92-.06h.12c.31-.03.6-.06.9-.09.49-.05.91-.1,1.34-.17l1.2-.18c.43-.08.96-.18,1.47-.29.92-.21,1.76-.42,2.52-.65.88-.26,1.73-.54,2.55-.85.61-.23,1.24-.49,1.85-.76.34-.15.63-.27.92-.41l1.39-.69c.23-.12.47-.25.7-.38.42-.22.75-.41,1.07-.61.45-.27.88-.53,1.3-.81l272.64-178.5c.93-.61,1.84-1.27,2.72-1.96v-28.85c0-15.03-11.23-27.69-26.13-29.46-1.14-.15-2.29-.22-3.56-.22H96.83c-16.37,0-29.69,13.32-29.69,29.69v33.02l211.64,135.72,63.55,40.75c.49.31,1,.62,1.52.92l.14.08s.06.03.09.05c.34.19.69.38,1.04.55l.15.08h-.04s.21.09.21.09c.64.34,1.34.67,2.07.98.47.21.86.38,1.24.52l.27.11c.53.2,1.08.4,1.62.58l.2.07c.49.16.96.29,1.42.43h.02s.21.06.21.06c.55.15,1.1.29,1.65.41.5.11,1.02.22,1.54.31l.65.11c.21.04.43.07.64.1l.44.07s.17.02.29.03l.25.03c.26.04.52.07.78.09l.15.02c.08,0,.16.02.23.02l.29.02c.3.03.59.05.89.06l.75.04h.03Zm-10.09-1.72h0s0,0,0,0Zm-.28-.12s.02,0,.04.01c-.01,0-.02,0-.04-.01Zm310.17-183.21h.01-.01Z" class="colorccd2d6 svgShape"/><path fill="#93c5fd" d="m628.2,745.81H96.83c-7.25,0-14.23-2.17-20.17-6.26l-3.48-2.4,223.82-163.2,45.34,29.08c.49.31,1,.62,1.52.92l.14.08s.06.03.09.06c.34.19.69.37,1.04.55l.15.08h-.04s.21.09.21.09c.64.34,1.34.67,2.07.98.47.21.86.38,1.24.52l.27.11c.53.2,1.08.4,1.62.58l.2.07c.49.16.96.29,1.42.43l.29.08c.51.15,1.02.28,1.53.38.57.14,1.08.24,1.59.33l.66.11c.21.04.43.07.64.1l.44.07s.17.02.29.03l.25.03c.26.04.52.07.78.09l.15.02c.08,0,.16.02.23.02l.29.02c.3.03.59.05.89.06,1.38.07,2.66.07,3.98,0,.34-.01.63-.03.92-.06h.12c.31-.03.6-.06.9-.09.49-.05.91-.1,1.34-.17l1.2-.18c.43-.08.96-.18,1.47-.29.81-.18,1.68-.41,2.54-.66.86-.25,1.71-.53,2.53-.84.61-.23,1.24-.49,1.85-.76.34-.15.63-.27.92-.41l1.39-.69c.23-.12.47-.25.7-.38.42-.22.75-.41,1.07-.61.45-.27.88-.53,1.3-.81l44.86-29.37,224.47,163.67-3.48,2.4c-5.94,4.09-12.92,6.26-20.17,6.26Zm-544.39-9c4.02,1.97,8.45,3,13.01,3h531.38c4.56,0,8.99-1.03,13.01-3l-214.01-156.04-41.38,27.09c-.48.32-.97.62-1.46.91-.43.27-.87.52-1.31.75-.21.12-.51.28-.8.43l-1.58.79c-.38.18-.75.34-1.13.51-.66.3-1.4.6-2.12.87-.98.37-1.98.7-2.98.99-.97.29-1.97.54-2.96.76-.61.13-1.18.24-1.74.34l-1.27.2c-.53.08-1.05.15-1.58.2-.41.04-.77.08-1.13.1-.41.04-.82.07-1.23.08-1.47.08-2.96.08-4.49,0-.34-.01-.73-.04-1.12-.07-.24,0-.48-.03-.72-.06-.34-.03-.69-.06-1.03-.11-.21-.02-.43-.04-.63-.07l-.44-.07c-.26-.04-.52-.08-.78-.12-.12-.02-.25-.04-.37-.06-.1-.01-.21-.03-.31-.06-.64-.11-1.27-.24-1.88-.39-.52-.11-1.12-.26-1.72-.43-.17-.04-.35-.08-.52-.14-.56-.16-1.12-.32-1.68-.51-.06-.02-.12-.04-.18-.06-.58-.2-1.17-.4-1.74-.62-.12-.04-.24-.09-.36-.15-.47-.18-.97-.38-1.47-.62-.79-.33-1.62-.72-2.4-1.14-.11-.05-.22-.11-.33-.17-.42-.21-.83-.44-1.25-.66l-.23-.14s-.06-.03-.1-.06c-.57-.33-1.14-.67-1.7-1.03l-41.89-26.86-213.39,155.6Zm266.9-129.79s.02,0,.04.01c-.01,0-.02,0-.04-.01Z" class="colorccd2d6 svgShape"/><path fill="#93c5fd" d="m322.2,567.75c-.55,0-1.11-.15-1.61-.47l-202.34-129.5c-1.4-.89-1.8-2.75-.91-4.14.89-1.4,2.75-1.8,4.14-.91l202.34,129.5c1.4.89,1.8,2.75.91,4.14-.57.89-1.54,1.38-2.53,1.38Z" class="colorccd2d6 svgShape"/><path fill="#93c5fd" d="m407.5,567.75c-.97,0-1.91-.46-2.49-1.33-.92-1.38-.56-3.24.82-4.16l79.69-53.54c1.38-.92,3.24-.56,4.16.82.92,1.38.56,3.24-.82,4.16l-79.69,53.54c-.51.34-1.09.51-1.67.51Z" class="colorccd2d6 svgShape"/><path fill="#93c5fd" d="m147.66,715.3c-.93,0-1.86-.44-2.44-1.25-.96-1.35-.65-3.22.69-4.19l129.5-92.77c1.35-.96,3.22-.66,4.19.69.96,1.35.65,3.22-.69,4.19l-129.5,92.77c-.53.38-1.14.56-1.74.56Z" class="colorccd2d6 svgShape"/></g><g class="color000000 svgShape"><path fill="#93c5fd" d="m378.64,115.79v129.95c0,12.33-10,22.32-22.34,22.32h-36.16v21.06c0,9.68-11.44,14.83-18.69,8.4l-4.34-3.86-26.21-23.26-2.62-2.33h-138.99c-12.34,0-22.34-10-22.34-22.32V115.79c0-12.34,10-22.34,22.34-22.34h227.02c12.34,0,22.34,10,22.34,22.34Z" class="colorccd2d6 svgShape" opacity=".5"/><path fill="#93c5fd" d="m308.85,303.37c-3.39,0-6.71-1.23-9.4-3.61l-4.35-3.87-27.98-24.83h-137.85c-13.97,0-25.34-11.36-25.34-25.32V115.79c0-13.97,11.37-25.34,25.34-25.34h227.02c13.97,0,25.34,11.37,25.34,25.34v129.95c0,13.96-11.37,25.32-25.34,25.32h-33.16v18.06c0,5.67-3.21,10.64-8.39,12.97-1.91.86-3.92,1.28-5.9,1.28ZM129.28,96.45c-10.66,0-19.34,8.67-19.34,19.34v129.95c0,10.66,8.67,19.32,19.34,19.32h140.13l34.03,30.22c2.49,2.21,5.8,2.71,8.84,1.34,3.04-1.37,4.85-4.17,4.85-7.5v-24.06h39.16c10.66,0,19.34-8.67,19.34-19.32V115.79c0-10.66-8.67-19.34-19.34-19.34h-227.02Z" class="colorccd2d6 svgShape"/><path fill="#93c5fd" d="m204.6,168.02c0-14.75,3.34-26.16,10.01-34.24,6.67-8.08,16.08-12.12,28.22-12.12s21.54,4.01,28.18,12.04c6.65,8.03,9.97,19.44,9.97,34.24v20.02c0,14.7-3.34,26.09-10.01,34.17-6.67,8.08-16.1,12.12-28.3,12.12-12.09,0-21.46-4.01-28.11-12.04-6.65-8.03-9.97-19.44-9.97-34.24v-19.94Zm25.36,23.78c.05,7.88,1.1,13.66,3.16,17.35,2.06,3.69,5.24,5.53,9.56,5.53,4.47,0,7.73-1.89,9.78-5.68,2.06-3.79,3.08-9.77,3.08-17.95v-28c-.15-7.33-1.22-12.79-3.2-16.41-1.98-3.61-5.15-5.42-9.52-5.42s-7.73,1.95-9.78,5.83c-2.06,3.89-3.09,9.77-3.09,17.65v27.09Z" class="colorccd2d6 svgShape"/></g><g class="color000000 svgShape"><path fill="#93c5fd" d="m526.4,262.23c-3.39,0-6.44-2.37-7.15-5.83l-19.09-91.73c-.82-3.96,1.72-7.83,5.67-8.65,3.95-.82,7.83,1.72,8.65,5.67l19.09,91.73c.82,3.96-1.72,7.83-5.67,8.65-.5.1-1,.15-1.5.15Z" class="colorccd2d6 svgShape" opacity=".5"/><path fill="#93c5fd" d="m569.15,271.36c-1.54,0-3.08-.48-4.4-1.48-3.22-2.43-3.87-7.02-1.43-10.25l48.56-64.33c2.43-3.23,7.02-3.87,10.25-1.43,3.22,2.43,3.87,7.02,1.43,10.25l-48.56,64.33c-1.44,1.91-3.63,2.91-5.84,2.91Z" class="colorccd2d6 svgShape" opacity=".5"/><g class="color000000 svgShape" opacity=".5"><path fill="#93c5fd" d="m158.41,927.58c-.47,0-.94-.05-1.42-.14-3.96-.78-6.55-4.63-5.77-8.59l18.09-91.93c.78-3.96,4.62-6.55,8.59-5.77,3.96.78,6.55,4.63,5.77,8.59l-18.09,91.93c-.69,3.49-3.75,5.9-7.17,5.9Z" class="colorccd2d6 svgShape"/><path fill="#93c5fd" d="m70.9,850.99c-2.53,0-4.98-1.31-6.34-3.65-2.02-3.5-.83-7.97,2.67-10l69.76-40.38c3.5-2.02,7.97-.83,10,2.67,2.02,3.5.83,7.97-2.67,10l-69.76,40.38c-1.15.67-2.41.98-3.66.98Z" class="colorccd2d6 svgShape"/></g></g></svg>