<svg width="831" height="727" viewBox="0 0 831 727" fill="none" xmlns="http://www.w3.org/2000/svg">
<path d="M559.526 244.385C500.582 244.385 440.58 241.991 384.453 226.357C329.381 211.075 278.817 181.426 233.745 147.13C204.238 124.805 177.406 106.988 139.096 109.664C101.617 111.692 65.7759 125.688 36.8402 149.595C-11.8931 192.271 -4.56905 271.358 14.9384 326.711C44.2347 410.304 133.391 468.544 209.167 506.221C296.704 549.954 392.833 575.377 489.314 589.955C573.822 602.843 682.416 612.139 755.657 556.997C822.912 506.221 841.363 390.444 824.884 312.274C820.885 289.181 808.589 268.344 790.305 253.681C743.051 219.103 672.557 242.202 619.457 243.329C599.738 243.751 579.668 244.244 559.526 244.385Z" fill="#F2F2F2"/>
<path d="M662.346 574.462H193.815V265.724L428.538 104.312L662.346 265.724V574.462Z" fill="#D2D2D2"/>
<path d="M544.651 57.5724L206.429 149.529C195.77 152.427 189.478 163.417 192.376 174.076L267.704 451.136C270.602 461.795 281.592 468.087 292.251 465.189L630.473 373.233C641.132 370.335 647.423 359.345 644.525 348.686L569.198 71.6249C566.3 60.9659 555.31 54.6744 544.651 57.5724Z" fill="white" stroke="#BABABA" stroke-linecap="round" stroke-linejoin="round"/>
<path d="M662.346 576.363H193.815V267.695L416.566 408.966L662.346 267.695V576.363Z" fill="white" stroke="#BABABA" stroke-linecap="round" stroke-linejoin="round"/>
<path d="M193.815 576.363L414.806 365.091C418.973 361.039 424.556 358.772 430.369 358.772C436.182 358.772 441.766 361.039 445.933 365.091L662.346 576.363H193.815Z" fill="white" stroke="#BABABA" stroke-linecap="round" stroke-linejoin="round"/>
<path d="M360.649 298.893C359.783 282.466 364.57 266.239 374.213 252.912C383.856 239.585 397.773 229.964 413.646 225.65C429.52 221.335 446.392 222.589 461.454 229.201C476.516 235.813 488.859 247.386 496.426 261.991" stroke="#BABABA" stroke-linecap="round" stroke-linejoin="round"/>
<path d="M480.511 178.961C486.034 178.961 490.511 174.484 490.511 168.961C490.511 163.438 486.034 158.961 480.511 158.961C474.988 158.961 470.511 163.438 470.511 168.961C470.511 174.484 474.988 178.961 480.511 178.961Z" fill="#BABABA"/>
<path d="M327.269 220.652C332.792 220.652 337.269 216.175 337.269 210.652C337.269 205.129 332.792 200.652 327.269 200.652C321.746 200.652 317.269 205.129 317.269 210.652C317.269 216.175 321.746 220.652 327.269 220.652Z" fill="#BABABA"/>
<path d="M653.684 164.102C657.495 164.102 660.585 161.012 660.585 157.2C660.585 153.389 657.495 150.299 653.684 150.299C649.872 150.299 646.782 153.389 646.782 157.2C646.782 161.012 649.872 164.102 653.684 164.102Z" fill="#CFCFCF"/>
<path d="M158.392 517.207C162.204 517.207 165.294 514.117 165.294 510.306C165.294 506.494 162.204 503.404 158.392 503.404C154.58 503.404 151.49 506.494 151.49 510.306C151.49 514.117 154.58 517.207 158.392 517.207Z" fill="#CFCFCF"/>
<path d="M769.178 153.82V184.173" stroke="#BABABA" stroke-linecap="round" stroke-linejoin="round"/>
<path d="M754.038 169.031H784.32" stroke="#BABABA" stroke-linecap="round" stroke-linejoin="round"/>
<path d="M728.193 627.914V658.196" stroke="#BABABA" stroke-linecap="round" stroke-linejoin="round"/>
<path d="M713.051 643.055H743.333" stroke="#BABABA" stroke-linecap="round" stroke-linejoin="round"/>
<path d="M147.335 1V31.2823" stroke="#BABABA" stroke-linecap="round" stroke-linejoin="round"/>
<path d="M132.194 16.1413H162.477" stroke="#BABABA" stroke-linecap="round" stroke-linejoin="round"/>
<path d="M418.116 727C560.897 727 676.643 719.78 676.643 710.873C676.643 701.966 560.897 694.746 418.116 694.746C275.336 694.746 159.59 701.966 159.59 710.873C159.59 719.78 275.336 727 418.116 727Z" fill="#F2F2F2"/>
</svg>
