<svg width="675" height="536" viewBox="0 0 675 536" fill="none" xmlns="http://www.w3.org/2000/svg">
<g filter="url(#filter0_f_5_853)">
<ellipse cx="330.22" cy="436.131" rx="258.222" ry="49.8145" fill="#1F88F8" fill-opacity="0.35"/>
</g>
<path d="M333.057 535.561C480.948 535.561 600.838 415.671 600.838 267.78C600.838 119.889 480.948 0 333.057 0C185.166 0 65.2771 119.889 65.2771 267.78C65.2771 415.671 185.166 535.561 333.057 535.561Z" fill="url(#paint0_linear_5_853)"/>
<g filter="url(#filter1_d_5_853)">
<path d="M557.368 181.221L327.899 341.361L98.4299 181.221L308.491 34.5645C314.188 30.5941 320.965 28.4654 327.909 28.4654C334.852 28.4654 341.629 30.5941 347.326 34.5645L389.228 63.8576L400.199 71.4761L510.667 148.613L522.304 156.784L557.368 181.221Z" fill="url(#paint1_linear_5_853)"/>
</g>
<path d="M290.587 315.325L98.4299 451.963V181.221L290.587 315.325Z" fill="url(#paint2_linear_5_853)"/>
<g filter="url(#filter2_f_5_853)">
<ellipse cx="440.015" cy="175.876" rx="85.3963" ry="27.4488" fill="#FF4C77" fill-opacity="0.3"/>
</g>
<path d="M365.229 315.325L557.387 451.963V181.221L365.229 315.325Z" fill="url(#paint3_linear_5_853)"/>
<path d="M98.4299 451.963L308.243 302.793C313.985 298.704 320.859 296.507 327.909 296.507C334.958 296.507 341.832 298.704 347.574 302.793L557.368 451.963H98.4299Z" fill="url(#paint4_linear_5_853)"/>
<path d="M418.183 120.874V117.599H421.437V120.874H418.183ZM421.182 111.645H418.438V110.816C418.438 109.88 418.552 109.065 418.779 108.37C419.005 107.675 419.303 107.066 419.672 106.541C420.055 106.017 420.48 105.549 420.948 105.138C421.43 104.727 421.919 104.337 422.415 103.968C422.925 103.585 423.415 103.203 423.882 102.82C424.364 102.437 424.79 102.012 425.158 101.544C425.541 101.076 425.846 100.544 426.073 99.949C426.3 99.3535 426.413 98.6518 426.413 97.8437V97.4396C426.413 96.7591 426.285 96.1283 426.03 95.547C425.775 94.9516 425.421 94.4341 424.967 93.9946C424.527 93.5551 424.01 93.2078 423.415 92.9526C422.833 92.6974 422.202 92.5698 421.522 92.5698H420.926C420.246 92.5698 419.608 92.6974 419.013 92.9526C418.431 93.2078 417.914 93.5551 417.46 93.9946C417.021 94.4341 416.673 94.9516 416.418 95.547C416.163 96.1283 416.035 96.7591 416.035 97.4396V98.673L413.292 98.2265V97.4396C413.292 96.4047 413.484 95.4336 413.866 94.5263C414.263 93.6189 414.802 92.825 415.482 92.1445C416.163 91.464 416.957 90.9324 417.864 90.5496C418.786 90.1526 419.764 89.9541 420.799 89.9541H421.671C422.706 89.9541 423.677 90.1526 424.584 90.5496C425.492 90.9324 426.285 91.464 426.966 92.1445C427.646 92.825 428.178 93.6189 428.561 94.5263C428.958 95.4336 429.156 96.4047 429.156 97.4396V97.8437C429.156 98.8219 429.043 99.6796 428.816 100.417C428.589 101.154 428.284 101.806 427.902 102.373C427.533 102.94 427.108 103.444 426.626 103.883C426.158 104.323 425.669 104.734 425.158 105.117C424.662 105.499 424.173 105.875 423.691 106.244C423.223 106.612 422.798 107.016 422.415 107.456C422.046 107.895 421.749 108.384 421.522 108.923C421.295 109.462 421.182 110.093 421.182 110.816V111.645Z" fill="white"/>
<g filter="url(#filter3_d_5_853)">
<path d="M122.676 132.161C87.4967 148.617 49.6938 158.747 11.0001 162.086C16.2284 174.24 53.3771 235.077 163.654 285.205C166.635 285.663 235.498 253.628 273.289 231.66C272.004 233.494 155.903 190.773 122.676 132.161Z" fill="url(#paint5_linear_5_853)"/>
</g>
<path d="M442.652 198.743C484.938 198.743 519.218 164.463 519.218 122.177C519.218 79.8909 484.938 45.6112 442.652 45.6112C400.366 45.6112 366.086 79.8909 366.086 122.177C366.086 164.463 400.366 198.743 442.652 198.743Z" fill="url(#paint6_linear_5_853)"/>
<path d="M125.398 162.408C123.779 161.285 121.729 160.982 119.854 161.589L58.3048 181.501C56.1 182.215 55.3144 184.931 56.7979 186.711V186.711C57.9926 188.144 59.9481 188.692 61.7135 188.087L124.833 166.468C126.614 165.858 126.945 163.482 125.398 162.408V162.408Z" fill="#C9DFFF"/>
<path d="M124.331 186.934C122.77 185.468 120.529 184.979 118.5 185.662L75.8899 200.002C74.011 200.635 73.3476 202.953 74.6075 204.484V204.484C75.6369 205.734 77.3331 206.216 78.8663 205.694L123.566 190.475C125.075 189.961 125.493 188.025 124.331 186.934V186.934Z" fill="#C9DFFF"/>
<path d="M147.201 199.078C145.572 197.773 143.381 197.412 141.419 198.125L92.3384 215.964C90.412 216.664 89.8323 219.107 91.2388 220.598V220.598C92.3149 221.739 93.9673 222.128 95.4394 221.588L146.591 202.817C148.181 202.234 148.523 200.137 147.201 199.078V199.078Z" fill="#C9DFFF"/>
<path d="M164.36 235.898C162.851 234.23 160.473 233.66 158.372 234.461L130.322 245.165C128.6 245.823 127.979 247.941 129.074 249.424V249.424C130.1 250.814 131.929 251.345 133.54 250.721L163.606 239.077C164.902 238.575 165.293 236.929 164.36 235.898V235.898Z" fill="#C9DFFF"/>
<g filter="url(#filter4_d_5_853)">
<path d="M529.325 217.002C571.982 236.956 617.82 249.239 664.739 253.288C658.399 268.025 613.354 341.794 479.637 402.577C476.022 403.133 392.522 364.288 346.698 337.651C348.255 339.875 489.035 288.073 529.325 217.002Z" fill="url(#paint7_linear_5_853)"/>
</g>
<path d="M526.025 253.68C527.988 252.318 530.474 251.95 532.748 252.686L607.38 276.831C610.053 277.696 611.006 280.989 609.207 283.148V283.148C607.758 284.886 605.387 285.55 603.247 284.817L526.71 258.602C524.551 257.862 524.15 254.981 526.025 253.68V253.68Z" fill="#C9DFFF"/>
<path d="M505.129 273.555C507.022 271.778 509.739 271.186 512.2 272.014L563.867 289.402C566.145 290.169 566.95 292.98 565.422 294.836V294.836C564.174 296.352 562.117 296.937 560.258 296.304L506.057 277.849C504.228 277.226 503.72 274.878 505.129 273.555V273.555Z" fill="#C9DFFF"/>
<path d="M483.655 290.055C485.63 288.473 488.287 288.035 490.665 288.899L550.179 310.529C552.515 311.378 553.218 314.342 551.512 316.149V316.149C550.207 317.532 548.204 318.004 546.419 317.349L484.395 294.589C482.467 293.881 482.052 291.338 483.655 290.055V290.055Z" fill="#C9DFFF"/>
<path d="M435.334 323.065C437.164 321.043 440.047 320.352 442.595 321.324L476.607 334.303C478.695 335.1 479.448 337.669 478.121 339.467V339.467C476.876 341.153 474.658 341.797 472.705 341.04L436.249 326.921C434.676 326.312 434.203 324.316 435.334 323.065V323.065Z" fill="#C9DFFF"/>
<path d="M457.536 305.436C459.549 304.174 462.033 303.912 464.265 304.728L542.633 333.382C545.138 334.298 545.744 337.563 543.736 339.318V339.318C542.407 340.478 540.551 340.821 538.896 340.211L458.055 310.431C455.875 309.628 455.567 306.671 457.536 305.436V305.436Z" fill="#C9DFFF"/>
<path d="M181.335 207.126C179.675 206.085 177.626 205.869 175.785 206.542L111.155 230.173C109.089 230.928 108.589 233.621 110.246 235.068V235.068C111.341 236.025 112.872 236.308 114.237 235.805L180.906 211.245C182.704 210.583 182.958 208.144 181.335 207.126V207.126Z" fill="#C9DFFF"/>
<path d="M556.636 63.0306C556.636 70.1696 550.849 75.9569 543.71 75.9569C536.571 75.9569 530.783 70.1696 530.783 63.0306C530.783 55.8915 536.571 50.1042 543.71 50.1042C550.849 50.1042 556.636 55.8915 556.636 63.0306Z" stroke="url(#paint8_linear_5_853)" stroke-width="2.61276"/>
<circle cx="147.228" cy="477.813" r="12.9263" stroke="url(#paint9_linear_5_853)" stroke-width="2.61276"/>
<circle cx="490.846" cy="500.178" r="12.9263" stroke="url(#paint10_linear_5_853)" stroke-width="2.61276"/>
<path d="M187.893 63.3147C188.408 61.1817 191.442 61.1817 191.957 63.3147L199.115 92.9648C199.299 93.7271 199.894 94.3222 200.656 94.5062L230.306 101.664C232.439 102.178 232.439 105.212 230.306 105.727L200.656 112.885C199.894 113.069 199.299 113.664 199.115 114.426L191.957 144.076C191.442 146.209 188.408 146.209 187.893 144.076L180.736 114.426C180.552 113.664 179.957 113.069 179.195 112.885L149.545 105.727C147.412 105.212 147.412 102.178 149.545 101.664L179.195 94.5062C179.957 94.3222 180.552 93.7271 180.736 92.9648L187.893 63.3147Z" fill="url(#paint11_linear_5_853)"/>
<path d="M595.304 416.971C595.819 414.838 598.853 414.838 599.368 416.971L606.525 446.621C606.709 447.384 607.304 447.979 608.067 448.163L637.717 455.32C639.85 455.835 639.85 458.869 637.717 459.384L608.067 466.541C607.304 466.725 606.709 467.32 606.525 468.082L599.368 497.733C598.853 499.866 595.819 499.866 595.304 497.733L588.147 468.082C587.963 467.32 587.368 466.725 586.605 466.541L556.955 459.384C554.822 458.869 554.822 455.835 556.955 455.32L586.605 448.163C587.368 447.979 587.963 447.384 588.147 446.621L595.304 416.971Z" fill="url(#paint12_linear_5_853)"/>
<path d="M76.8022 388.34C78.1262 388.128 79.1832 389.429 78.7048 390.682L68.2934 417.944C67.815 419.197 66.16 419.462 65.3144 418.421L46.9101 395.773C46.0645 394.733 46.6624 393.167 47.9864 392.955L76.8022 388.34Z" fill="url(#paint13_linear_5_853)"/>
<path d="M599.672 183.851C599.34 182.552 600.54 181.381 601.831 181.744L629.925 189.639C631.216 190.002 631.63 191.626 630.671 192.562L609.786 212.945C608.827 213.882 607.213 213.428 606.882 212.129L599.672 183.851Z" fill="url(#paint14_linear_5_853)"/>
<defs>
<filter id="filter0_f_5_853" x="50.2251" y="364.543" width="559.99" height="143.175" filterUnits="userSpaceOnUse" color-interpolation-filters="sRGB">
<feFlood flood-opacity="0" result="BackgroundImageFix"/>
<feBlend mode="normal" in="SourceGraphic" in2="BackgroundImageFix" result="shape"/>
<feGaussianBlur stdDeviation="10.8865" result="effect1_foregroundBlur_5_853"/>
</filter>
<filter id="filter1_d_5_853" x="94.9463" y="28.4654" width="465.906" height="319.863" filterUnits="userSpaceOnUse" color-interpolation-filters="sRGB">
<feFlood flood-opacity="0" result="BackgroundImageFix"/>
<feColorMatrix in="SourceAlpha" type="matrix" values="0 0 0 0 0 0 0 0 0 0 0 0 0 0 0 0 0 0 127 0" result="hardAlpha"/>
<feOffset dy="3.48368"/>
<feGaussianBlur stdDeviation="1.74184"/>
<feComposite in2="hardAlpha" operator="out"/>
<feColorMatrix type="matrix" values="0 0 0 0 0 0 0 0 0 0 0 0 0 0 0 0 0 0 0.25 0"/>
<feBlend mode="normal" in2="BackgroundImageFix" result="effect1_dropShadow_5_853"/>
<feBlend mode="normal" in="SourceGraphic" in2="effect1_dropShadow_5_853" result="shape"/>
</filter>
<filter id="filter2_f_5_853" x="332.846" y="126.654" width="214.338" height="98.4436" filterUnits="userSpaceOnUse" color-interpolation-filters="sRGB">
<feFlood flood-opacity="0" result="BackgroundImageFix"/>
<feBlend mode="normal" in="SourceGraphic" in2="BackgroundImageFix" result="shape"/>
<feGaussianBlur stdDeviation="10.8865" result="effect1_foregroundBlur_5_853"/>
</filter>
<filter id="filter3_d_5_853" x="0.548963" y="125.194" width="283.191" height="173.951" filterUnits="userSpaceOnUse" color-interpolation-filters="sRGB">
<feFlood flood-opacity="0" result="BackgroundImageFix"/>
<feColorMatrix in="SourceAlpha" type="matrix" values="0 0 0 0 0 0 0 0 0 0 0 0 0 0 0 0 0 0 127 0" result="hardAlpha"/>
<feOffset dy="3.48368"/>
<feGaussianBlur stdDeviation="5.22552"/>
<feComposite in2="hardAlpha" operator="out"/>
<feColorMatrix type="matrix" values="0 0 0 0 0.0196078 0 0 0 0 0.168627 0 0 0 0 0.396078 0 0 0 0.15 0"/>
<feBlend mode="normal" in2="BackgroundImageFix" result="effect1_dropShadow_5_853"/>
<feBlend mode="normal" in="SourceGraphic" in2="effect1_dropShadow_5_853" result="shape"/>
</filter>
<filter id="filter4_d_5_853" x="326.612" y="215.26" width="347.652" height="215.192" filterUnits="userSpaceOnUse" color-interpolation-filters="sRGB">
<feFlood flood-opacity="0" result="BackgroundImageFix"/>
<feColorMatrix in="SourceAlpha" type="matrix" values="0 0 0 0 0 0 0 0 0 0 0 0 0 0 0 0 0 0 127 0" result="hardAlpha"/>
<feOffset dx="-5.28021" dy="13.0638"/>
<feGaussianBlur stdDeviation="7.40282"/>
<feComposite in2="hardAlpha" operator="out"/>
<feColorMatrix type="matrix" values="0 0 0 0 0.021441 0 0 0 0 0.168056 0 0 0 0 0.395833 0 0 0 0.15 0"/>
<feBlend mode="normal" in2="BackgroundImageFix" result="effect1_dropShadow_5_853"/>
<feBlend mode="normal" in="SourceGraphic" in2="effect1_dropShadow_5_853" result="shape"/>
</filter>
<linearGradient id="paint0_linear_5_853" x1="330.993" y1="-87.1959" x2="336.479" y2="853.208" gradientUnits="userSpaceOnUse">
<stop stop-color="#CAE0FF" stop-opacity="0"/>
<stop offset="1" stop-color="#BCD8FF"/>
</linearGradient>
<linearGradient id="paint1_linear_5_853" x1="327.899" y1="28.4654" x2="327.899" y2="341.361" gradientUnits="userSpaceOnUse">
<stop stop-color="#EDF4FF"/>
<stop offset="1" stop-color="#ABCCFF"/>
</linearGradient>
<linearGradient id="paint2_linear_5_853" x1="194.509" y1="181.221" x2="194.509" y2="451.963" gradientUnits="userSpaceOnUse">
<stop stop-color="#ABCCFF"/>
<stop offset="1" stop-color="#70A8FF"/>
</linearGradient>
<linearGradient id="paint3_linear_5_853" x1="461.308" y1="181.221" x2="461.308" y2="451.963" gradientUnits="userSpaceOnUse">
<stop stop-color="#ABCCFF"/>
<stop offset="1" stop-color="#70A8FF"/>
</linearGradient>
<linearGradient id="paint4_linear_5_853" x1="327.899" y1="296.507" x2="327.899" y2="451.963" gradientUnits="userSpaceOnUse">
<stop stop-color="#70A8FF"/>
<stop offset="1" stop-color="#5597FD"/>
</linearGradient>
<linearGradient id="paint5_linear_5_853" x1="39.4655" y1="200.275" x2="211.275" y2="166.726" gradientUnits="userSpaceOnUse">
<stop stop-color="#C6DDFF"/>
<stop offset="1" stop-color="white"/>
</linearGradient>
<linearGradient id="paint6_linear_5_853" x1="366.819" y1="55.9141" x2="519.312" y2="199.258" gradientUnits="userSpaceOnUse">
<stop stop-color="#FF698D"/>
<stop offset="1" stop-color="#FF3868"/>
</linearGradient>
<linearGradient id="paint7_linear_5_853" x1="630.223" y1="299.594" x2="421.894" y2="258.914" gradientUnits="userSpaceOnUse">
<stop stop-color="#C6DDFF"/>
<stop offset="1" stop-color="white"/>
</linearGradient>
<linearGradient id="paint8_linear_5_853" x1="526.215" y1="54.1351" x2="570.693" y2="92.682" gradientUnits="userSpaceOnUse">
<stop stop-color="#94BFFF"/>
<stop offset="1" stop-color="#4C94FE"/>
</linearGradient>
<linearGradient id="paint9_linear_5_853" x1="129.733" y1="468.917" x2="174.211" y2="507.464" gradientUnits="userSpaceOnUse">
<stop stop-color="#94BFFF"/>
<stop offset="1" stop-color="#4C94FE"/>
</linearGradient>
<linearGradient id="paint10_linear_5_853" x1="473.352" y1="491.283" x2="517.829" y2="529.83" gradientUnits="userSpaceOnUse">
<stop stop-color="#94BFFF"/>
<stop offset="1" stop-color="#4C94FE"/>
</linearGradient>
<linearGradient id="paint11_linear_5_853" x1="189.925" y1="54.8976" x2="189.925" y2="152.493" gradientUnits="userSpaceOnUse">
<stop stop-color="#70A8FF"/>
<stop offset="1" stop-color="#5597FD"/>
</linearGradient>
<linearGradient id="paint12_linear_5_853" x1="597.336" y1="408.554" x2="597.336" y2="506.15" gradientUnits="userSpaceOnUse">
<stop stop-color="#70A8FF"/>
<stop offset="1" stop-color="#5597FD"/>
</linearGradient>
<linearGradient id="paint13_linear_5_853" x1="79.7812" y1="387.863" x2="48.2226" y2="413.509" gradientUnits="userSpaceOnUse">
<stop stop-color="#70A8FF"/>
<stop offset="1" stop-color="#5597FD"/>
</linearGradient>
<linearGradient id="paint14_linear_5_853" x1="598.926" y1="180.928" x2="627.329" y2="210.029" gradientUnits="userSpaceOnUse">
<stop stop-color="#70A8FF"/>
<stop offset="1" stop-color="#5597FD"/>
</linearGradient>
</defs>
</svg>
