<svg xmlns="http://www.w3.org/2000/svg" data-name="Layer 2" viewBox="0 0 1000 1000"><g opacity=".25"><path fill="#ccd2d6" d="m456.81,383.56c.22-.45.45-.91.7-1.36h-121.69c.44-.33.87-.7,1.3-1.05,10.2-8.48,18.42-18.6,24.01-29.84h116.88c-8.12,9.95-15.24,20.74-21.21,32.25Z"/><path fill="#ccd2d6" d="m916.06,778.46c-5.36,12.62-17.88,21.47-32.44,21.47h-75.62l-16.7,8.94c-11.96,6.41-26.71,2.38-33.8-8.94h-489.91c-19.47,0-35.25-15.79-35.25-35.25v-122.93c0-19.47,15.78-35.24,35.25-35.24h227.4c-10.18-9.56-19.28-20.24-27.12-31.85.21.32.42.64.64.96H110.94c-19.46,0-35.25-15.78-35.25-35.25v-122.93c0-1.62.11-3.23.33-4.8-16.63,4.54-31.53,12.28-43.63,22.34C12.38,451.63,0,474.62,0,500c0,50.77,49.52,91.93,110.58,91.93h7.43c16.82,0,32.76,3.12,47.03,8.71h26.89c3.74,0,6.77,3.03,6.77,6.76v13.59c18.54,16.43,29.9,38.54,29.9,62.84s-12.37,48.37-32.39,65c-20.01,16.63-47.67,26.93-78.2,26.93h-7.43c-30.53,0-58.18,10.29-78.19,26.93C12.38,819.33,0,842.3,0,867.68c0,50.77,49.52,91.92,110.58,91.92h778.84c30.53,0,58.18-10.28,78.19-26.93,20.01-16.63,32.39-39.59,32.39-64.99,0-43.13-35.74-79.32-83.94-89.22Zm-428.37,81.55c0,3.75-3.03,6.77-6.76,6.77h-219.35c-3.74,0-6.77-3.03-6.77-6.77v-28.94c0-3.75,3.04-6.77,6.77-6.77h219.35c3.74,0,6.76,3.03,6.76,6.77v28.94Z"/><path fill="#ccd2d6" d="m889.42,408.08h-28.68c-25.85,0-49.62-7.36-68.44-19.73,11.9,24.63,18.58,52.27,18.58,81.46,0,46-16.55,88.14-44.06,120.76-.39.45-.76.9-1.15,1.35h123.74c30.53,0,58.18-10.29,78.19-26.93,20.01-16.63,32.39-39.62,32.39-65,0-50.77-49.52-91.92-110.58-91.92Zm19.31,158.24c0,3.73-3.03,6.77-6.77,6.77h-59.05c-3.74,0-6.77-3.04-6.77-6.77v-28.95c0-3.74,3.04-6.76,6.77-6.76h59.05c3.75,0,6.77,3.03,6.77,6.76v28.95Z"/><path fill="#ccd2d6" d="m0,132.32c0-25.38,12.38-48.36,32.39-64.99,20.01-16.64,47.66-26.93,78.19-26.93h778.84c61.06,0,110.58,41.15,110.58,91.92,0,25.38-12.38,48.37-32.39,65-20.01,16.63-47.66,26.92-78.19,26.92h-26.41v-31.1c0-19.46-15.78-35.25-35.24-35.25H211.74c-19.47,0-35.25,15.79-35.25,35.25v31.1h-65.9C49.52,224.24,0,183.08,0,132.32Z"/><path fill="#ccd2d6" d="m909.65,311.68c0,33.18-26.91,60.08-60.09,60.08-17.99,0-34.15-7.91-45.15-20.44h23.36c19.46,0,35.24-15.78,35.24-35.24v-62.97c26.71,6.1,46.64,30,46.64,58.57Z"/><path fill="#ccd2d6" d="m197.03,681.09c0,33.18-26.9,60.08-60.08,60.08s-60.08-26.9-60.08-60.08c0-29.48,21.23-54,49.23-59.11v14.37c0,3.74,3.03,6.77,6.76,6.77h50.66c8.44,10.34,13.51,23.56,13.51,37.97Z"/></g><path fill="#ccd2d6" d="m827.77,157.89H211.74c-19.47,0-35.25,15.79-35.25,35.25v122.93c0,19.46,15.78,35.24,35.25,35.24h266.28c34.38-42.11,86.71-69.01,145.33-69.01s110.96,26.9,145.35,69.01h59.07c19.46,0,35.24-15.78,35.24-35.24v-122.93c0-19.46-15.78-35.25-35.24-35.25Zm-546.85,150.75c-29.84,0-54.04-24.2-54.04-54.04s24.2-54.03,54.04-54.03,54.03,24.19,54.03,54.03-24.19,54.04-54.03,54.04Z" opacity=".5"/><path fill="#ccd2d6" d="m827.77,354.32h-60.49l-.9-1.1c-35.24-43.16-87.38-67.91-143.03-67.91s-107.77,24.75-143.01,67.91l-.9,1.1H211.74c-21.09,0-38.25-17.15-38.25-38.24v-122.93c0-21.09,17.16-38.25,38.25-38.25h616.03c21.09,0,38.24,17.16,38.24,38.25v122.93c0,21.09-17.16,38.24-38.24,38.24Zm-57.65-6h57.65c17.78,0,32.24-14.46,32.24-32.24v-122.93c0-17.78-14.46-32.25-32.24-32.25H211.74c-17.78,0-32.25,14.47-32.25,32.25v122.93c0,17.78,14.47,32.24,32.25,32.24h264.86c36.36-43.87,89.76-69.01,146.75-69.01s110.39,25.14,146.77,69.01Z"/><path fill="#ccd2d6" d="m334.95,254.6c0,29.84-24.19,54.04-54.03,54.04s-54.04-24.2-54.04-54.04,24.2-54.03,54.04-54.03,54.03,24.19,54.03,54.03Z" opacity=".25"/><path fill="#ccd2d6" d="m280.92,311.64c-31.45,0-57.04-25.59-57.04-57.04s25.59-57.03,57.04-57.03,57.03,25.58,57.03,57.03-25.58,57.04-57.03,57.04Zm0-108.06c-28.14,0-51.04,22.89-51.04,51.03s22.9,51.04,51.04,51.04,51.03-22.9,51.03-51.04-22.89-51.03-51.03-51.03Z"/><path fill="#ccd2d6" d="m769.03,215.61h-397.07c-1.66,0-3-1.34-3-3s1.34-3,3-3h397.07c1.66,0,3,1.34,3,3s-1.34,3-3,3Z"/><path fill="#ccd2d6" d="m651.88,250.34h-279.92c-1.66,0-3-1.34-3-3s1.34-3,3-3h279.92c1.66,0,3,1.34,3,3s-1.34,3-3,3Z"/><path fill="#ccd2d6" d="m496.6,293.93h-124.64c-1.66,0-3-1.34-3-3s1.34-3,3-3h124.64c1.66,0,3,1.34,3,3s-1.34,3-3,3Z"/><g><path fill="#ccd2d6" d="m756.58,798.37l-56.28-105.07-4.42,2.36c-12.48,6.69-28.03,1.98-34.72-10.5l-15.61-29.13c-7.28.86-14.7,1.31-22.21,1.31-49.67,0-94.82-19.31-128.36-50.84h-227.4c-19.47,0-35.25,15.78-35.25,35.24v122.93c0,19.46,15.78,35.25,35.25,35.25h489.9c-.32-.51-.62-1.03-.91-1.56Zm-419.81-41.12c-29.84,0-54.04-24.19-54.04-54.03s24.2-54.04,54.04-54.04,54.03,24.2,54.03,54.04-24.19,54.03-54.03,54.03Z" opacity=".5"/><path fill="#ccd2d6" d="m918.87,641.75v122.93c0,19.46-15.79,35.25-35.25,35.25h-75.63l5.53-2.97c12.49-6.69,17.19-22.23,10.5-34.73l-56.29-105.06,4.41-2.36c12.49-6.69,17.19-22.24,10.49-34.72l-7.28-13.59h108.26c19.46,0,35.25,15.78,35.25,35.24Z" opacity=".5"/><path fill="#ccd2d6" d="m762.87,802.94h-495.29c-21.09,0-38.25-17.16-38.25-38.25v-122.93c0-21.09,17.16-38.24,38.25-38.24h228.59l.87.81c34.32,32.26,79.18,50.02,126.31,50.02,7.26,0,14.61-.43,21.86-1.29l2.03-.24,16.57,30.93c2.86,5.33,7.62,9.23,13.41,10.99,5.79,1.75,11.92,1.14,17.25-1.71l7.06-3.78,57.69,107.71c.25.47.53.94.82,1.4l2.83,4.58Zm-495.29-193.43c-17.78,0-32.25,14.46-32.25,32.24v122.93c0,17.78,14.47,32.25,32.25,32.25h484.82l-53.33-99.57-1.77.95c-6.74,3.61-14.48,4.38-21.81,2.17-7.33-2.22-13.35-7.15-16.96-13.9l-14.65-27.33c-6.82.73-13.71,1.1-20.53,1.1-48.27,0-94.23-18.04-129.55-50.84h-226.22Z"/><path fill="#ccd2d6" d="m883.62,802.94h-87.57l16.06-8.61c11.01-5.9,15.17-19.66,9.27-30.67l-57.7-107.7,7.05-3.78c5.33-2.86,9.23-7.62,10.99-13.41,1.75-5.79,1.14-11.92-1.72-17.24l-9.65-18.01h113.27c21.09,0,38.25,17.16,38.25,38.24v122.93c0,21.09-17.16,38.25-38.25,38.25Zm-64.56-6h64.56c17.78,0,32.25-14.47,32.25-32.25v-122.93c0-17.78-14.47-32.24-32.25-32.24h-103.25l4.92,9.17c3.62,6.74,4.39,14.49,2.17,21.81-2.21,7.33-7.15,13.35-13.89,16.97l-1.76.95,54.87,102.41c6.67,12.46,3.16,27.7-7.61,36.11Z"/><path fill="#ccd2d6" d="m390.8,703.22c0,29.84-24.19,54.03-54.03,54.03s-54.04-24.19-54.04-54.03,24.2-54.04,54.04-54.04,54.03,24.2,54.03,54.04Z" opacity=".25"/><path fill="#ccd2d6" d="m336.77,760.25c-31.45,0-57.04-25.58-57.04-57.03s25.59-57.04,57.04-57.04,57.03,25.59,57.03,57.04-25.58,57.03-57.03,57.03Zm0-108.06c-28.14,0-51.04,22.9-51.04,51.04s22.9,51.03,51.04,51.03,51.03-22.89,51.03-51.03-22.89-51.04-51.03-51.04Z"/><path fill="#ccd2d6" d="m558.57,664.22h-130.77c-1.66,0-3-1.34-3-3s1.34-3,3-3h130.77c1.66,0,3,1.34,3,3s-1.34,3-3,3Z"/><path fill="#ccd2d6" d="m608.97,698.95h-181.17c-1.66,0-3-1.34-3-3s1.34-3,3-3h181.17c1.66,0,3,1.34,3,3s-1.34,3-3,3Z"/><path fill="#ccd2d6" d="m664.82,742.54h-237.01c-1.66,0-3-1.34-3-3s1.34-3,3-3h237.01c1.66,0,3,1.34,3,3s-1.34,3-3,3Z"/></g><g><path fill="#ccd2d6" d="m435.84,469.82c0-31.65,7.84-61.47,21.68-87.62H110.94c-19.46,0-35.25,15.78-35.25,35.25v122.92c0,19.47,15.79,35.25,35.25,35.25h357.57c-20.62-30.12-32.67-66.54-32.67-105.8Zm-255.72,63.12c-29.84,0-54.03-24.19-54.03-54.03s24.19-54.03,54.03-54.03,54.04,24.19,54.04,54.03-24.2,54.03-54.04,54.03Z" opacity=".5"/><path fill="#ccd2d6" d="m474.2,578.63H110.94c-21.09,0-38.25-17.16-38.25-38.25v-122.92c0-21.09,17.16-38.25,38.25-38.25h351.56l-2.33,4.4c-13.96,26.37-21.33,56.19-21.33,86.22,0,37.38,11.12,73.39,32.15,104.11l3.21,4.69ZM110.94,385.2c-17.78,0-32.25,14.47-32.25,32.25v122.92c0,17.78,14.47,32.25,32.25,32.25h351.98c-19.7-30.67-30.08-66.09-30.08-102.8,0-29.35,6.82-58.49,19.77-84.62H110.94Z"/><path fill="#ccd2d6" d="m234.16,478.91c0,29.84-24.2,54.03-54.04,54.03s-54.03-24.19-54.03-54.03,24.19-54.03,54.03-54.03,54.04,24.19,54.04,54.03Z" opacity=".25"/><path fill="#ccd2d6" d="m180.12,535.94c-31.44,0-57.03-25.58-57.03-57.03s25.58-57.03,57.03-57.03,57.04,25.58,57.04,57.03-25.59,57.03-57.04,57.03Zm0-108.05c-28.14,0-51.03,22.89-51.03,51.03s22.89,51.03,51.03,51.03,51.04-22.89,51.04-51.03-22.9-51.03-51.04-51.03Z"/><path fill="#ccd2d6" d="m410.33,439.91h-139.17c-1.66,0-3-1.34-3-3s1.34-3,3-3h139.17c1.66,0,3,1.34,3,3s-1.34,3-3,3Z"/><path fill="#ccd2d6" d="m394.97,474.65h-123.81c-1.66,0-3-1.34-3-3s1.34-3,3-3h123.81c1.66,0,3,1.34,3,3s-1.34,3-3,3Z"/><path fill="#ccd2d6" d="m395.8,518.24h-124.64c-1.66,0-3-1.34-3-3s1.34-3,3-3h124.64c1.66,0,3,1.34,3,3s-1.34,3-3,3Z"/></g><g><path fill="#ccd2d6" d="m751.4,469.82c0,70.72-57.33,128.05-128.05,128.05s-128.04-57.33-128.04-128.05,57.32-128.04,128.04-128.04,128.05,57.32,128.05,128.04Z" opacity=".25"/><path fill="#ccd2d6" d="m623.35,600.87c-72.25,0-131.04-58.79-131.04-131.05s58.78-131.04,131.04-131.04,131.05,58.78,131.05,131.04-58.79,131.05-131.05,131.05Zm0-256.08c-68.95,0-125.04,56.09-125.04,125.04s56.09,125.05,125.04,125.05,125.05-56.1,125.05-125.05-56.1-125.04-125.05-125.04Z"/><path fill="#ccd2d6" d="m623.35,282.31c-103.56,0-187.51,83.95-187.51,187.51s83.95,187.52,187.51,187.52c7.52,0,14.93-.45,22.21-1.31,48.51-5.72,91.36-29.96,121.27-65.46,27.5-32.62,44.06-74.76,44.06-120.76,0-103.56-83.96-187.51-187.53-187.51Zm0,315.56c-70.72,0-128.04-57.33-128.04-128.05s57.32-128.04,128.04-128.04,128.05,57.32,128.05,128.04-57.33,128.05-128.05,128.05Z" opacity=".5"/><path fill="#ccd2d6" d="m623.35,660.35c-105.05,0-190.51-85.47-190.51-190.52s85.46-190.51,190.51-190.51,190.54,85.46,190.54,190.51c0,44.87-15.9,88.45-44.76,122.69-31.35,37.22-75.11,60.84-123.21,66.51-7.48.88-15.07,1.33-22.56,1.33Zm0-375.04c-101.74,0-184.51,82.77-184.51,184.51s82.77,184.52,184.51,184.52c7.26,0,14.61-.43,21.86-1.29,46.58-5.49,88.96-28.36,119.32-64.41,27.96-33.16,43.35-75.36,43.35-118.82,0-101.74-82.78-184.51-184.54-184.51Z"/><path fill="#ccd2d6" d="m813.52,796.97l-22.22,11.9c-12.48,6.7-28.04,1.99-34.72-10.5l-56.28-105.07,67.44-36.12,56.29,105.06c6.69,12.49,1.98,28.04-10.5,34.73Z" opacity=".75"/><path fill="#ccd2d6" d="m779.23,814.93c-2.79,0-5.59-.41-8.33-1.24-7.33-2.22-13.35-7.15-16.96-13.9l-57.69-107.71,72.72-38.95,57.7,107.7c7.46,13.93,2.2,31.33-11.73,38.79h0l-22.22,11.9c-4.22,2.26-8.83,3.41-13.49,3.41Zm-74.86-120.4l54.86,102.42c2.86,5.34,7.62,9.24,13.41,10.99,5.79,1.75,11.92,1.14,17.25-1.72l22.22-11.9c11.01-5.9,15.17-19.66,9.27-30.67l-54.87-102.41-62.15,33.29Zm109.16,102.44h0,0Z"/><path fill="#ccd2d6" d="m772.15,654.82l-4.41,2.37-67.44,36.12-4.41,2.37c-12.48,6.69-28.04,1.98-34.72-10.5l-15.61-29.13c10.74-1.27,21.21-3.44,31.32-6.45,25.02-7.43,47.86-19.96,67.31-36.37,8.17-6.89,15.75-14.47,22.64-22.65l15.81,29.52c6.7,12.48,1.99,28.04-10.49,34.72Z"/><path fill="#ccd2d6" d="m689.12,510.58c3.43,3.43,3.43,9,0,12.42l-12.56,12.59c-3.46,3.43-9.03,3.43-12.46,0l-34.54-34.57c-3.43-3.43-9-3.43-12.42,0l-34.54,34.54c-3.43,3.43-9,3.43-12.42,0l-12.56-12.56c-3.43-3.43-3.43-9,0-12.42l34.54-34.54c3.43-3.43,3.43-9,0-12.42l-34.57-34.54c-3.43-3.43-3.43-9,0-12.46l12.59-12.56c3.43-3.43,9-3.43,12.42,0l34.54,34.54c3.46,3.43,9,3.43,12.46,0l34.54-34.54c3.43-3.43,9-3.43,12.42,0l12.56,12.56c3.43,3.43,3.43,9,0,12.42l-34.54,34.54c-3.43,3.46-3.43,9,0,12.46l34.54,34.54Z"/></g><g><rect width="232.89" height="42.49" x="254.81" y="824.3" fill="#ccd2d6" opacity=".25" rx="6.13" ry="6.13"/><path fill="#ccd2d6" d="m481.57,869.79h-220.63c-5.03,0-9.13-4.09-9.13-9.13v-30.23c0-5.03,4.09-9.13,9.13-9.13h220.63c5.03,0,9.13,4.09,9.13,9.13v30.23c0,5.03-4.09,9.13-9.13,9.13Zm-220.63-42.49c-1.72,0-3.13,1.4-3.13,3.13v30.23c0,1.72,1.4,3.13,3.13,3.13h220.63c1.72,0,3.13-1.4,3.13-3.13v-30.23c0-1.72-1.4-3.13-3.13-3.13h-220.63Z"/></g><g><rect width="72.6" height="42.49" x="836.12" y="530.61" fill="#ccd2d6" opacity=".25" rx="6.13" ry="6.13"/><path fill="#ccd2d6" d="m902.6,576.09h-60.35c-5.03,0-9.13-4.09-9.13-9.13v-30.23c0-5.03,4.09-9.13,9.13-9.13h60.35c5.03,0,9.13,4.09,9.13,9.13v30.23c0,5.03-4.09,9.13-9.13,9.13Zm-60.35-42.49c-1.72,0-3.13,1.4-3.13,3.13v30.23c0,1.72,1.4,3.13,3.13,3.13h60.35c1.72,0,3.13-1.4,3.13-3.13v-30.23c0-1.72-1.4-3.13-3.13-3.13h-60.35Z"/></g><g><rect width="72.6" height="42.49" x="126.09" y="600.63" fill="#ccd2d6" opacity=".25" rx="6.13" ry="6.13"/><path fill="#ccd2d6" d="m192.57,646.12h-60.35c-5.03,0-9.13-4.09-9.13-9.13v-30.23c0-5.03,4.09-9.13,9.13-9.13h60.35c5.03,0,9.13,4.09,9.13,9.13v30.23c0,5.03-4.09,9.13-9.13,9.13Zm-60.35-42.49c-1.72,0-3.13,1.4-3.13,3.13v30.23c0,1.72,1.4,3.13,3.13,3.13h60.35c1.72,0,3.13-1.4,3.13-3.13v-30.23c0-1.72-1.4-3.13-3.13-3.13h-60.35Z"/></g><g><path fill="#ccd2d6" d="m767.55,591.93h-1.87c.39-.45.76-.9,1.15-1.35l.72,1.35Z"/><path fill="#ccd2d6" d="m766.84,590.58c-.39.45-.76.9-1.15,1.35h1.87l-.72-1.35h0Z"/></g></svg>