<svg width="1410" height="1095" viewBox="0 0 1410 1095" fill="none" xmlns="http://www.w3.org/2000/svg">
<g id="No Chat History">
<path id="Fill 1" fill-rule="evenodd" clip-rule="evenodd" d="M761.993 0C633.288 0 514.993 44.6146 421.586 119.259H270.624C251.01 119.259 234.963 135.358 234.963 155.036C234.963 174.714 251.01 190.814 270.624 190.814H347.453H369.967C389.58 190.814 405.627 206.914 405.627 226.591C405.627 236.418 401.609 245.386 395.143 251.85C388.7 258.338 379.761 262.369 369.967 262.369H321.934H295.412H166.02C146.407 262.369 130.359 278.469 130.359 298.146C130.359 317.824 146.407 333.924 166.02 333.924H258.651C230.689 399.855 215.2 472.4 215.2 548.589C215.2 576.234 217.245 603.401 221.167 629.948C222.808 641.039 224.781 652.034 227.087 662.911C294.366 652.583 365.735 644.282 440.241 638.224L445.852 643.352L451.13 637.365C540.637 630.377 634.591 626.656 731.492 626.656C937.371 626.656 1130.03 643.448 1294.76 672.642C1301.11 645.022 1305.39 616.614 1307.41 587.563C1308.34 574.683 1308.79 561.684 1308.79 548.589C1308.79 245.601 1063.99 0 761.993 0" fill="#F1F2F7"/>
<path id="Fill 3" fill-rule="evenodd" clip-rule="evenodd" d="M57.7341 260.714H36.1229C16.2553 260.714 0 277.139 0 297.214C0 317.289 16.2553 333.714 36.1229 333.714H57.7341C77.6017 333.714 93.857 317.289 93.857 297.214C93.857 277.139 77.6017 260.714 57.7341 260.714" fill="#F1F2F7"/>
<g id="Group 7">
<mask id="mask0_48_6031" style="mask-type:luminance" maskUnits="userSpaceOnUse" x="226" y="627" width="1182" height="468">
<path id="Clip 6" fill-rule="evenodd" clip-rule="evenodd" d="M1407.49 627.445V1095H816.915H226.342V627.445H1407.49V627.445Z" fill="white"/>
</mask>
<g mask="url(#mask0_48_6031)">
<path id="Fill 5" fill-rule="evenodd" clip-rule="evenodd" d="M1407.49 808.215C1407.49 827.768 1391.44 843.766 1371.84 843.766H1144.11C1134.32 843.766 1125.39 847.772 1118.95 854.219C1112.48 860.642 1108.46 869.553 1108.46 879.318C1108.46 898.872 1124.5 914.87 1144.11 914.87H1186.42C1196.21 914.87 1205.15 918.876 1211.59 925.323C1218.06 931.746 1222.07 940.657 1222.07 950.422C1222.07 969.976 1206.03 985.974 1186.42 985.974H1089.14C997.751 1054.42 884.19 1095 761.12 1095C498.27 1095 278.75 910.012 226.342 663.471C293.605 653.208 364.956 644.96 439.445 638.94L445.052 644.036L450.331 638.087C539.814 631.142 633.747 627.445 730.625 627.445C936.453 627.445 1129.07 644.131 1293.76 673.141C1285.75 707.697 1274.44 740.974 1260.17 772.663H1371.84C1381.65 772.663 1390.54 776.668 1397.01 783.115C1403.47 789.538 1407.49 798.45 1407.49 808.215" fill="#E8EBF2"/>
</g>
</g>
<path id="Fill 8" fill-rule="evenodd" clip-rule="evenodd" d="M1303.57 585.942C1301.55 615.547 1297.28 644.496 1290.94 672.642C1126.43 642.891 934.026 625.782 728.42 625.782C631.647 625.782 537.819 629.571 448.43 636.693L510.42 564.868L606.853 627.797L737.394 591.753L961.964 625.782L1059.46 591.753L1084.15 625.782L1143.06 582.055L1198.11 632.513L1284.93 563.142L1303.57 585.942Z" fill="#E0E2EE"/>
<path id="Fill 10" fill-rule="evenodd" clip-rule="evenodd" d="M983.517 617.37C1008.21 581.476 1022.36 538.909 1021.99 493.354C1020.98 366.649 908.105 264.834 769.879 265.937C631.652 267.042 520.421 370.655 521.433 497.359C522.445 624.061 635.32 725.879 773.544 724.776C822.93 724.382 868.867 710.895 907.473 687.947L1010.74 712.264L983.517 617.37Z" fill="#D8DBEA"/>
<path id="Fill 12" fill-rule="evenodd" clip-rule="evenodd" d="M698.712 489.936C698.827 504.333 687.248 516.098 672.851 516.213C658.449 516.33 646.683 504.748 646.571 490.351C646.456 475.952 658.033 464.189 672.433 464.072C686.83 463.957 698.595 475.536 698.712 489.936" fill="#BEC0D6"/>
<path id="Fill 14" fill-rule="evenodd" clip-rule="evenodd" d="M792.568 489.933C792.682 504.333 781.103 516.098 766.704 516.213C752.305 516.328 740.539 504.748 740.427 490.351C740.31 475.952 751.889 464.186 766.288 464.072C780.685 463.957 792.451 475.536 792.568 489.933" fill="#BEC0D6"/>
<path id="Fill 16" fill-rule="evenodd" clip-rule="evenodd" d="M886.429 489.933C886.544 504.33 874.965 516.096 860.565 516.213C846.166 516.328 834.4 504.748 834.288 490.349C834.171 475.95 845.75 464.187 860.149 464.072C874.546 463.955 886.312 475.536 886.429 489.933" fill="#BEC0D6"/>
<path id="Fill 18" fill-rule="evenodd" clip-rule="evenodd" d="M448.429 636.142L443.371 641.357L438 636.89C441.459 636.62 444.945 636.371 448.429 636.142" fill="#F1F2F7"/>
<path id="Fill 20" fill-rule="evenodd" clip-rule="evenodd" d="M495.357 672.644C495.357 689.202 500.653 704.617 509.754 717.593L500.095 752.211L537.703 743.061C551.842 751.285 568.608 756.071 586.607 756.071C637.004 756.071 677.857 718.718 677.857 672.644C677.857 626.566 637.004 589.214 586.607 589.214C536.21 589.214 495.357 626.566 495.357 672.644Z" fill="url(#paint0_linear_48_6031)"/>
<path id="Fill 22" fill-rule="evenodd" clip-rule="evenodd" d="M610.072 672.643C610.072 678.402 614.738 683.071 620.5 683.071C626.258 683.071 630.929 678.402 630.929 672.643C630.929 666.885 626.258 662.214 620.5 662.214C614.738 662.214 610.072 666.885 610.072 672.643" fill="white"/>
<path id="Fill 24" fill-rule="evenodd" clip-rule="evenodd" d="M578.783 672.643C578.783 678.402 583.451 683.071 589.212 683.071C594.969 683.071 599.64 678.402 599.64 672.643C599.64 666.885 594.969 662.214 589.212 662.214C583.451 662.214 578.783 666.885 578.783 672.643" fill="white"/>
<path id="Fill 26" fill-rule="evenodd" clip-rule="evenodd" d="M542.285 672.643C542.285 678.402 546.953 683.071 552.714 683.071C558.471 683.071 563.142 678.402 563.142 672.643C563.142 666.885 558.471 662.214 552.714 662.214C546.953 662.214 542.285 666.885 542.285 672.643" fill="white"/>
<path id="Fill 28" fill-rule="evenodd" clip-rule="evenodd" d="M438 637.487C363.518 643.555 292.174 651.869 224.918 662.214C222.612 651.32 220.64 640.306 219 629.197L334.284 542.285L438 637.487Z" fill="#E0E2EE"/>
<path id="Fill 30" fill-rule="evenodd" clip-rule="evenodd" d="M959.429 816.035C959.429 826.114 868.382 834.285 756.072 834.285C643.759 834.285 552.715 826.114 552.715 816.035C552.715 805.959 643.759 797.785 756.072 797.785C868.382 797.785 959.429 805.959 959.429 816.035" fill="#D8DBEA"/>
<path id="Fill 32" fill-rule="evenodd" clip-rule="evenodd" d="M1293.14 985.499V985.499C1273.07 985.499 1256.64 969.074 1256.64 948.999C1256.64 928.924 1273.07 912.499 1293.14 912.499C1313.22 912.499 1329.64 928.924 1329.64 948.999C1329.64 969.074 1313.22 985.499 1293.14 985.499" fill="#E1E3EF"/>
</g>
<defs>
<linearGradient id="paint0_linear_48_6031" x1="586.607" y1="505.785" x2="420.418" y2="687.555" gradientUnits="userSpaceOnUse">
<stop stop-color="#FF8960"/>
<stop offset="1" stop-color="#FF62A5"/>
</linearGradient>
</defs>
</svg>
